<svg width="150" height="150" viewBox="0 0 150 150" fill="none" xmlns="http://www.w3.org/2000/svg">
<path d="M112.651 45H37.3494C36.0519 45 35 46.108 35 47.4747V93.0462C35 94.4129 36.0519 95.5209 37.3494 95.5209H66.7156V100.051H60.3775C59.08 100.051 58.0281 101.159 58.0281 102.525C58.0281 103.892 59.08 105 60.3775 105H89.6223C90.9198 105 91.9717 103.892 91.9717 102.525C91.9717 101.159 90.9198 100.051 89.6223 100.051H83.2844V95.5209H112.651C113.948 95.5209 115 94.4129 115 93.0462V47.4747C115 46.108 113.948 45 112.651 45V45ZM78.5856 100.051H71.4144V95.521H78.5856V100.051ZM110.301 90.5717H39.6988V49.9495H110.301V90.5717Z" fill="#05479D"/>
<path d="M71.0469 71.1797H72.625V72.3594H71.0469V75H69.5938V72.3594H64.4141V71.5078L69.5078 63.625H71.0469V71.1797ZM66.0547 71.1797H69.5938V65.6016L69.4219 65.9141L66.0547 71.1797ZM77.1953 69.7109L75.8047 71.1562V75H74.3047V63.625H75.8047V69.25L80.8594 63.625H82.6719L78.1953 68.6484L83.0234 75H81.2266L77.1953 69.7109Z" fill="#05479D"/>
</svg>
