<svg width="150" height="150" viewBox="0 0 150 150" fill="none" xmlns="http://www.w3.org/2000/svg">
<path d="M112.651 45H37.3494C36.0519 45 35 46.108 35 47.4747V93.0462C35 94.4129 36.0519 95.5209 37.3494 95.5209H66.7156V100.051H60.3775C59.08 100.051 58.0281 101.159 58.0281 102.525C58.0281 103.892 59.08 105 60.3775 105H89.6223C90.9198 105 91.9717 103.892 91.9717 102.525C91.9717 101.159 90.9198 100.051 89.6223 100.051H83.2844V95.5209H112.651C113.948 95.5209 115 94.4129 115 93.0462V47.4747C115 46.108 113.948 45 112.651 45V45ZM78.5856 100.051H71.4144V95.521H78.5856V100.051ZM110.301 90.5717H39.6988V49.9495H110.301V90.5717Z" fill="white"/>
<path d="M74.0625 75H72.5547V69.7422H66.8203V75H65.3203V63.625H66.8203V68.5156H72.5547V63.625H74.0625V75ZM76.7266 75V63.625H79.9375C80.9271 63.625 81.8021 63.8438 82.5625 64.2812C83.3229 64.7188 83.9089 65.3411 84.3203 66.1484C84.737 66.9557 84.9479 67.8828 84.9531 68.9297V69.6562C84.9531 70.7292 84.7448 71.6693 84.3281 72.4766C83.9167 73.2839 83.3255 73.9036 82.5547 74.3359C81.7891 74.7682 80.8958 74.9896 79.875 75H76.7266ZM78.2266 64.8594V73.7734H79.8047C80.9609 73.7734 81.8594 73.4141 82.5 72.6953C83.1458 71.9766 83.4688 70.9531 83.4688 69.625V68.9609C83.4688 67.6693 83.1641 66.6667 82.5547 65.9531C81.9505 65.2344 81.0911 64.8698 79.9766 64.8594H78.2266Z" fill="white"/>
</svg>
