<svg width="150" height="150" viewBox="0 0 150 150" fill="none" xmlns="http://www.w3.org/2000/svg">
<path d="M75 48.5714C67.7894 48.5714 61.9231 54.0187 61.9231 60.7143C61.9231 67.4099 67.7894 72.8571 75 72.8571C82.2106 72.8571 88.0769 67.4099 88.0769 60.7143C88.0769 54.0187 82.2106 48.5714 75 48.5714ZM75 68.5714C70.3343 68.5714 66.5385 65.0467 66.5385 60.7143C66.5385 57.1244 69.1445 54.0891 72.6923 53.1541V60.7143C72.6923 61.8977 73.7255 62.8571 75 62.8571C76.2745 62.8571 77.3077 61.8977 77.3077 60.7143V53.1541C80.8555 54.0891 83.4615 57.1244 83.4615 60.7143C83.4615 65.0467 79.6657 68.5714 75 68.5714ZM104.993 86.2577L101.923 50.6241C101.871 44.7573 96.7148 40 90.3846 40H59.6154C53.2852 40 48.1294 44.7573 48.0772 50.6241L45.0074 86.2577C45.0025 86.3146 45 86.3716 45 86.4286C45 89.9544 48.0726 92.8266 51.8622 92.8569C52.8597 95.4781 54.8792 97.8306 57.6915 99.6064C60.2237 101.205 63.288 102.256 66.5385 102.665V107.857C66.5385 109.041 67.5717 110 68.8462 110C70.1206 110 71.1538 109.041 71.1538 107.857V102.857H78.8462V107.857C78.8462 109.041 79.8794 110 81.1538 110C82.4283 110 83.4615 109.041 83.4615 107.857V102.665C86.712 102.256 89.7763 101.205 92.3085 99.6063C95.1208 97.8304 97.1403 95.4781 98.1378 92.8567C101.927 92.8266 105 89.9544 105 86.4286C105 86.3716 104.998 86.3146 104.993 86.2577ZM80.3846 98.5714H69.6154C64.0305 98.5714 59.0972 96.2424 56.9328 92.8571H93.0672C90.9028 96.2424 85.9695 98.5714 80.3846 98.5714ZM98.0769 88.5714H51.9231C50.6762 88.5714 49.6571 87.6484 49.6166 86.4996L52.6849 50.8851C52.6898 50.8283 52.6923 50.7713 52.6923 50.7143C52.6923 47.1696 55.798 44.2857 59.6154 44.2857H90.3846C94.202 44.2857 97.3077 47.1696 97.3077 50.7143C97.3077 50.7713 100.383 86.4996 100.383 86.4996C100.343 87.6484 99.3238 88.5714 98.0769 88.5714Z" fill="white"/>
</svg>
