<svg width="150" height="150" viewBox="0 0 150 150" fill="none" xmlns="http://www.w3.org/2000/svg">
<path d="M111.28 75.683H109.449V33.5694C109.449 30.5401 106.984 28.0762 103.955 28.0762H61.8411C60.8295 28.0762 60.0101 28.8956 60.0101 29.9072C60.0101 30.9189 60.8295 31.7383 61.8411 31.7383H103.955C104.964 31.7383 105.786 32.5594 105.786 33.5694V86.6694H43.5306V33.5694C43.5306 32.5594 44.3517 31.7383 45.3616 31.7383C46.3727 31.7383 47.1927 30.9189 47.1927 29.9072C47.1927 28.8956 46.3727 28.0762 45.3616 28.0762C42.3324 28.0762 39.8685 30.5401 39.8685 33.5694V35.4004H38.0374C35.0082 35.4004 32.5443 37.8643 32.5443 40.8936V48.2178C32.5443 51.247 35.0082 53.711 38.0374 53.711H39.8685V99.4873C39.8685 101.874 41.3991 103.909 43.5306 104.665V110.474C43.5306 111.484 44.35 112.305 45.3616 112.305H47.1927V119.995C47.1927 121.007 48.0121 121.826 49.0237 121.826C50.0348 121.826 50.8548 121.007 50.8548 119.995V112.305H54.5158V119.995C54.5158 121.007 55.3363 121.826 56.3468 121.826C57.3585 121.826 58.1779 121.007 58.1779 119.995V112.305H60.0101C61.0211 112.305 61.8411 111.484 61.8411 110.474V104.98H63.0382C63.7935 107.112 65.8305 108.643 68.2172 108.643H81.0992C83.4859 108.643 85.5224 107.112 86.2782 104.98H87.4759V110.474C87.4759 111.484 88.2953 112.305 89.3069 112.305H91.138V119.995C91.138 121.007 91.9574 121.826 92.969 121.826C93.9801 121.826 94.8001 121.007 94.8001 119.995V112.305H98.4622V119.995C98.4622 121.007 99.2816 121.826 100.293 121.826C101.304 121.826 102.124 121.007 102.124 119.995V112.305H103.955C104.966 112.305 105.786 111.484 105.786 110.474V104.665C107.917 103.909 109.449 101.874 109.449 99.4873V90.3315H111.28C114.308 90.3315 116.773 87.867 116.773 84.8383V81.1762C116.773 78.1475 114.308 75.683 111.28 75.683V75.683ZM38.0374 50.0488C37.0275 50.0488 36.2064 49.2277 36.2064 48.2178V40.8936C36.2064 39.8836 37.0275 39.0625 38.0374 39.0625H39.8685V50.0488H38.0374ZM58.179 108.643H47.1927V104.98H58.179V108.643ZM91.138 108.643V104.98H102.124V108.643H91.138ZM105.786 93.9936H97.5472C96.5356 93.9936 95.7162 94.8135 95.7162 95.8246C95.7162 96.8357 96.5356 97.6557 97.5472 97.6557H105.786V99.4873C105.786 100.497 104.964 101.318 103.955 101.318H84.7613C83.7497 101.318 82.9303 102.138 82.9303 103.149C82.9303 104.159 82.1086 104.98 81.0992 104.98H68.2172C67.2084 104.98 66.3861 104.159 66.3861 103.149C66.3861 102.138 65.5667 101.318 64.5551 101.318H45.3616C44.3517 101.318 43.5306 100.497 43.5306 99.4873V90.3315H105.786V93.9936ZM113.111 84.8383C113.111 85.8482 112.288 86.6694 111.28 86.6694H109.449V79.3451H111.28C112.288 79.3451 113.111 80.1668 113.111 81.1762V84.8383Z" fill="white"/>
<path d="M75.1292 38.2694C74.1531 38.0074 73.1483 38.5876 72.8873 39.5649C72.136 42.3664 72.524 44.2043 72.8656 45.826C73.1746 47.2897 73.4184 48.4455 72.8873 50.4293C72.6253 51.4061 73.2049 52.4097 74.1817 52.6718C74.3407 52.7147 74.4998 52.7347 74.6566 52.7347C75.4651 52.7347 76.205 52.1952 76.4241 51.3769C77.1829 48.5468 76.7932 46.6991 76.4493 45.0701C76.142 43.6167 75.9006 42.4677 76.4241 40.5125C76.6856 39.5351 76.1066 38.5315 75.1292 38.2694V38.2694Z" fill="white"/>
<path d="M67.3342 42.1673C66.3563 41.9058 65.3526 42.4854 65.0911 43.4622C64.3398 46.2643 64.7278 48.1028 65.07 49.7238C65.3784 51.187 65.6221 52.3434 65.0911 54.3278C64.8291 55.3045 65.4093 56.3082 66.3855 56.5697C66.5445 56.612 66.7036 56.6326 66.8604 56.6326C67.6695 56.6326 68.4088 56.0936 68.6285 55.2754C69.3866 52.4452 68.997 50.5976 68.6531 48.9679C68.347 47.5145 68.1043 46.3661 68.6285 44.4103C68.8905 43.4336 68.3103 42.4294 67.3342 42.1673Z" fill="white"/>
<path d="M82.9256 42.1673C81.9488 41.9058 80.9446 42.4854 80.6825 43.4622C79.9318 46.2643 80.3203 48.1028 80.6619 49.7233C80.9709 51.187 81.2147 52.3434 80.6825 54.3278C80.421 55.304 81.0013 56.3082 81.9774 56.5697C82.1359 56.612 82.2956 56.6326 82.4529 56.6326C83.2615 56.6326 84.0013 56.0936 84.2205 55.2754C84.9786 52.4452 84.5895 50.5976 84.2457 48.9679C83.9384 47.514 83.6963 46.3661 84.2205 44.4103C84.482 43.4336 83.9023 42.4294 82.9256 42.1673V42.1673Z" fill="white"/>
<path d="M74.6585 80.2006C79.4204 80.2006 83.2942 76.3256 83.2942 71.5637C83.2942 66.732 78.6393 61.6789 76.402 59.2504L76.0106 58.8253C75.6638 58.4442 75.1735 58.2279 74.6585 58.2279C74.1441 58.2279 73.6525 58.4442 73.3058 58.8253C73.2174 58.9218 73.122 59.0252 73.0212 59.1346C72.9862 59.1725 72.9506 59.2112 72.9144 59.2504C70.6771 61.6789 66.0222 66.732 66.0222 71.5637C66.0216 76.3256 69.896 80.2006 74.6585 80.2006ZM74.6585 62.7747C76.6469 64.9994 79.6321 68.6787 79.6321 71.5637C79.6321 74.3069 77.4011 76.5385 74.6585 76.5385C71.9153 76.5385 69.6837 74.3069 69.6837 71.5637C69.6837 68.6787 72.6701 64.9994 74.6585 62.7747Z" fill="white"/>
<path d="M74.6585 80.2006C79.4204 80.2006 83.2942 76.3256 83.2942 71.5637C83.2942 66.732 78.6393 61.6789 76.402 59.2504L76.0106 58.8253C75.6638 58.4442 75.1735 58.2279 74.6585 58.2279C74.1441 58.2279 73.6525 58.4442 73.3058 58.8253C73.2174 58.9218 73.122 59.0252 73.0212 59.1346C72.9862 59.1725 72.9506 59.2112 72.9144 59.2504C70.6771 61.6789 66.0222 66.732 66.0222 71.5637C66.0216 76.3256 69.896 80.2006 74.6585 80.2006ZM74.6585 62.7747C76.6469 64.9994 79.6321 68.6787 79.6321 71.5637C79.6321 74.3069 77.4011 76.5385 74.6585 76.5385C71.9153 76.5385 69.6837 74.3069 69.6837 71.5637C69.6837 68.6787 72.6701 64.9994 74.6585 62.7747Z" stroke="white"/>
<path d="M89.308 97.6557C90.3196 97.6557 91.139 96.8357 91.139 95.8246C91.139 94.8135 90.3196 93.9936 89.308 93.9936H89.3068C88.2952 93.9936 87.4763 94.8135 87.4763 95.8246C87.4763 96.8357 88.2969 97.6557 89.308 97.6557V97.6557Z" fill="white"/>
<path d="M53.6018 31.7383C54.6129 31.7383 55.4329 30.9189 55.4329 29.9072C55.4329 28.8956 54.6129 28.0762 53.6018 28.0762H53.6001C52.589 28.0762 51.7702 28.8956 51.7702 29.9072C51.7702 30.9189 52.5902 31.7383 53.6018 31.7383Z" fill="white"/>
</svg>
