<svg width="150" height="150" viewBox="0 0 150 150" fill="none" xmlns="http://www.w3.org/2000/svg">
<path d="M96.0938 30H53.9062C49.5446 30 45.9961 33.5485 45.9961 37.9102V93.457C45.9961 96.8944 48.2006 99.8252 51.2695 100.914V106.641C51.2695 107.639 51.8338 108.552 52.7271 108.999C55.7029 110.487 58.7415 111.666 61.8164 112.537V117.363C61.8164 118.819 62.997 120 64.4531 120C65.9093 120 67.0898 118.819 67.0898 117.363V113.724C69.7162 114.164 72.358 114.199 75 114.199C77.642 114.199 80.2838 114.164 82.9102 113.724V117.363C82.9102 118.819 84.0907 120 85.5469 120C87.003 120 88.1836 118.819 88.1836 117.363V112.537C91.2585 111.666 94.2971 110.487 97.2729 108.999C98.1662 108.552 98.7305 107.639 98.7305 106.641V100.914C101.799 99.8252 104.004 96.8944 104.004 93.457V37.9102C104.004 33.5485 100.455 30 96.0938 30ZM93.457 104.981C80.8511 110.766 69.1496 110.766 56.543 104.981V101.367C57.3275 101.367 92.6709 101.367 93.457 101.367V104.981ZM67.0898 96.0938V85.5469C67.0898 81.1852 70.6383 77.6367 75 77.6367C79.3617 77.6367 82.9102 81.1852 82.9102 85.5469V96.0938H67.0898ZM98.7305 93.457C98.7305 94.9109 97.5476 96.0938 96.0938 96.0938H88.1836V85.5469C88.1836 78.2774 82.2694 72.3633 75 72.3633C67.7306 72.3633 61.8164 78.2774 61.8164 85.5469V96.0938H53.9062C52.4524 96.0938 51.2695 94.9109 51.2695 93.457V56.3672H62.0817C63.3065 62.3775 68.6332 66.9141 75 66.9141C81.3668 66.9141 86.6933 62.3775 87.9183 56.3672H98.7305V93.457ZM67.0898 53.7305C67.0898 49.3688 70.6383 45.8203 75 45.8203C79.3617 45.8203 82.9102 49.3688 82.9102 53.7305C82.9102 58.0921 79.3617 61.6406 75 61.6406C70.6383 61.6406 67.0898 58.0921 67.0898 53.7305ZM98.7305 51.0938H87.9183C86.6933 45.0834 81.3666 40.5469 75 40.5469C68.6334 40.5469 63.3067 45.0834 62.0817 51.0938H51.2695V37.9102C51.2695 36.4563 52.4524 35.2734 53.9062 35.2734H96.0938C97.5476 35.2734 98.7305 36.4563 98.7305 37.9102V51.0938Z" fill="white"/>
<path d="M75 88.1836C76.4562 88.1836 77.6367 87.0031 77.6367 85.5469C77.6367 84.0907 76.4562 82.9102 75 82.9102C73.5438 82.9102 72.3633 84.0907 72.3633 85.5469C72.3633 87.0031 73.5438 88.1836 75 88.1836Z" fill="white"/>
<path d="M75 45.8203C73.5438 45.8203 72.3633 47.0009 72.3633 48.457V53.7305C72.3633 55.1866 73.5438 56.3672 75 56.3672C76.4562 56.3672 77.6367 55.1866 77.6367 53.7305V48.457C77.6367 47.0009 76.4562 45.8203 75 45.8203Z" fill="white"/>
</svg>
