<svg width="150" height="150" viewBox="0 0 150 150" fill="none" xmlns="http://www.w3.org/2000/svg">
<path d="M114.075 86.4627L113.675 85.1686L106.047 83.1673C106.094 82.4422 106.115 81.7146 106.115 80.9799C106.115 71.6627 102.295 62.7732 95.6348 56.5903L92.5269 60.2636C98.1855 65.5156 101.429 73.0668 101.429 80.9799C101.429 81.3054 101.425 81.6295 101.412 81.9518L96.4594 80.6525C96.3892 75.5591 94.6589 70.6128 91.565 66.6857L87.9505 69.811C90.0995 72.5367 91.4069 75.8974 91.7102 79.407L86.662 78.0835C86.117 75.6717 84.903 73.5265 83.238 71.8756L90.9131 43.8262L90.0452 42.8166C86.3245 38.4853 80.8454 36 75.0147 36C69.184 36 63.7067 38.4853 59.986 42.8166L59.1175 43.8262L61.2812 51.7354C59.5832 52.6139 57.9523 53.6613 56.4063 54.8736C51.1817 58.9657 47.2425 64.7976 45.3138 71.2918L49.7882 72.7497C51.9172 65.5763 56.5918 59.8544 62.5916 56.5245L64.0064 61.6984C62.1631 62.8538 60.4767 64.3014 59.018 66.0118L62.5116 69.2822C63.3673 68.279 64.3238 67.3909 65.3559 66.6313L66.7914 71.8775C65.1355 73.5201 63.9252 75.6519 63.3771 78.0489L58.324 79.3597C58.4974 77.3328 59.0021 75.3788 59.8316 73.5297L55.589 71.444C54.2994 74.3232 53.62 77.3993 53.57 80.5918L36.3453 85.0586L35.9418 86.3514C34.2115 91.8898 34.8865 98.1028 37.793 103.399C40.6995 108.694 45.4853 112.431 50.9241 113.652L52.1936 113.936L57.6685 108.022C62.768 111.614 68.7983 113.558 75.0147 113.558C77.1607 113.558 79.3036 113.329 81.3855 112.875L80.4297 108.069C78.6615 108.455 76.8409 108.65 75.0147 108.65C69.9073 108.65 65.0885 107.105 61.0028 104.417L64.5484 100.586C67.6459 102.409 71.2165 103.448 75.0147 103.448V98.5395C72.4939 98.5395 70.1026 97.9538 67.9566 96.9033L71.5772 92.9896C72.6654 93.333 73.8196 93.5177 75.0147 93.5177C76.1988 93.5177 77.342 93.3381 78.4229 92.9992L97.7515 114L99.021 113.719C104.463 112.515 109.26 108.79 112.179 103.504C115.1 98.2173 115.79 92.0062 114.075 86.4627V86.4627ZM82.7057 90.5791C84.8096 88.7274 86.2995 86.1321 86.8006 83.1801L109.953 89.2524C110.798 93.1399 110.154 97.3681 108.124 101.046C106.092 104.723 102.915 107.414 99.2755 108.584L82.7057 90.5791ZM64.3549 45.1567C67.1442 42.4438 70.9601 40.9086 75.0147 40.9086C79.0711 40.9086 82.887 42.4438 85.6745 45.1567L79.0992 69.1927C77.8247 68.7049 76.4484 68.4395 75.0147 68.4395C73.581 68.4395 72.2046 68.7049 70.9302 69.1927L64.3549 45.1567ZM50.6836 108.515C47.0472 107.336 43.8764 104.634 41.8555 100.951C39.8346 97.2684 39.2005 93.0388 40.0562 89.1539L63.2257 83.1462C63.7189 86.1008 65.2015 88.7012 67.3023 90.558L50.6836 108.515ZM67.7314 80.9799C67.7314 76.7714 70.9992 73.3481 75.0147 73.3481C79.032 73.3481 82.2992 76.7714 82.2992 80.9799C82.2992 85.1865 79.032 88.6091 75.0147 88.6091C70.9992 88.6098 67.7314 85.1865 67.7314 80.9799V80.9799Z" fill="white"/>
</svg>
