<svg width="150" height="150" viewBox="0 0 150 150" fill="none" xmlns="http://www.w3.org/2000/svg">
<path d="M107 60.6933C107 43.2177 92.6449 29 75 29C57.3551 29 43 43.2177 43 60.6933C43 76.5827 54.8679 89.7772 70.2853 92.0419V110.246L61.575 111.324C59.2207 111.616 57.4451 113.608 57.4451 115.958V119.51C57.4451 120.333 58.1188 121 58.9498 121H91.0502C91.8812 121 92.5549 120.333 92.5549 119.51V115.958C92.5549 113.608 90.7793 111.616 88.425 111.324L79.7147 110.246V92.0419C95.1321 89.7772 107 76.5827 107 60.6933ZM46.0094 60.6933C46.0094 44.861 59.0144 31.9806 75 31.9806C90.9856 31.9806 103.991 44.861 103.991 60.6933C103.991 74.9358 93.4655 86.7873 79.7147 89.0243V74.0929L81.2654 75.8481C82.8062 77.5921 85.0311 78.6365 87.3695 78.7136C87.4627 78.7168 87.5556 78.7182 87.6485 78.7182C89.8891 78.7182 92.0641 77.8295 93.6567 76.2522C94.4468 75.4697 94.8785 74.3864 94.8414 73.2804C94.8043 72.1746 94.3007 71.1223 93.4597 70.3934L82.4978 60.8938L90.109 54.2978C91.8699 52.7718 92.9246 50.5681 93.0025 48.2522C93.0803 45.9361 92.1761 43.6681 90.5173 42.0253C89.7272 41.2428 88.6348 40.8122 87.5167 40.8517C86.4 40.8887 85.3375 41.3872 84.6016 42.2204L75.01 53.077L68.3502 45.5387C66.8094 43.7947 64.5844 42.7503 62.2461 42.6732C59.9084 42.5975 57.6177 43.4917 55.9589 45.1346C55.1688 45.9171 54.7371 47.0004 54.7742 48.1064C54.8115 49.2122 55.3149 50.2645 56.1559 50.9934L67.1178 60.493L59.5066 67.089C57.7457 68.615 56.691 70.8187 56.6133 73.1346C56.5355 75.4507 57.4397 77.7187 59.0983 79.3616C59.8569 80.1131 60.8955 80.5373 61.9657 80.5373C62.01 80.5373 62.0545 80.5367 62.0989 80.5351C63.2156 80.4981 64.2783 79.9996 65.0142 79.1664L70.2853 73.1997V89.0243C56.5345 86.7873 46.0094 74.9358 46.0094 60.6933ZM75 57.4147C76.8253 57.4147 78.3103 58.8855 78.3103 60.6933C78.3103 62.5011 76.8253 63.9719 75 63.9719C73.1747 63.9719 71.6897 62.5011 71.6897 60.6933C71.6897 58.8855 73.1747 57.4147 75 57.4147ZM77.0923 66.5984C78.7038 66.0367 80.0175 64.8458 80.7323 63.3243L91.4779 72.6366C91.6976 72.827 91.824 73.0909 91.8336 73.3798C91.8432 73.6687 91.7351 73.9403 91.5242 74.149C90.4411 75.222 88.9998 75.7865 87.4696 75.7346C85.938 75.6841 84.539 75.0272 83.5301 73.8853L77.0923 66.5984ZM77.3959 54.9027L86.8665 44.1828C87.0587 43.9652 87.3251 43.84 87.6168 43.8305C87.9113 43.8223 88.1828 43.9282 88.3937 44.1371C89.477 45.2099 90.0456 46.6362 89.9947 48.1529C89.9437 49.6698 89.2804 51.0552 88.1272 52.0546L80.8595 58.353C80.2219 56.7923 78.9672 55.5427 77.3959 54.9027ZM69.1604 58.3027L58.1375 48.7502C57.9178 48.5598 57.7914 48.296 57.7818 48.007C57.7722 47.7181 57.8803 47.4465 58.0912 47.2379C59.1745 46.1649 60.6171 45.6007 62.1458 45.6522C63.6772 45.7027 65.0764 46.3596 66.0853 47.5015L72.6192 54.8971C71.0577 55.5282 69.8064 56.7604 69.1604 58.3027ZM69.044 62.7839C69.6118 64.3658 70.8041 65.6559 72.3264 66.3629L62.7489 77.2036C62.5567 77.4212 62.2901 77.5464 61.9984 77.5559C61.7061 77.5685 61.4326 77.4584 61.2217 77.2493C60.1384 76.1765 59.5698 74.7502 59.6207 73.2335C59.6717 71.7166 60.335 70.3312 61.4882 69.3318L69.044 62.7839ZM74.6056 68.3096L76.7053 70.6865V89.355C76.1408 89.3876 75.5726 89.406 75 89.406C74.4274 89.406 73.8592 89.3876 73.2947 89.355V69.7934L74.6056 68.3096ZM89.5455 115.958V118.019H60.4545V115.958C60.4545 115.108 61.0968 114.387 61.9484 114.282L71.8833 113.052H78.1161L88.0516 114.282C88.9032 114.387 89.5455 115.108 89.5455 115.958ZM76.7053 110.071H73.2947V92.3415C73.8594 92.3711 74.4278 92.3866 75 92.3866C75.5722 92.3866 76.1406 92.3709 76.7053 92.3415V110.071Z" fill="white"/>
</svg>
