<svg width="150" height="150" viewBox="0 0 150 150" fill="none" xmlns="http://www.w3.org/2000/svg">
<path d="M105.312 115H44.6872C42.1029 115 40 112.894 40 110.307V39.6926C39.9995 37.1051 42.1024 35 44.6872 35H105.313C107.897 35 110 37.1051 110 39.6926V110.306C110 112.894 107.897 115 105.312 115ZM42.4706 51.5461V110.307C42.4706 111.531 43.465 112.526 44.6867 112.526H105.312C106.535 112.526 107.528 111.53 107.528 110.307V51.5461H42.4706ZM42.4706 49.0719H107.529V39.6926C107.529 38.4694 106.534 37.4742 105.313 37.4742H44.6872C43.465 37.4742 42.4711 38.4698 42.4711 39.6926V49.0719H42.4706ZM74.9995 102.386C63.2063 102.386 53.6114 92.779 53.6114 80.971C53.6114 69.1631 63.2063 59.5562 74.9995 59.5562C86.7927 59.5562 96.3876 69.1631 96.3876 80.971C96.3876 92.779 86.7932 102.386 74.9995 102.386ZM74.9995 62.0299C64.5689 62.0299 56.0826 70.5269 56.0826 80.9705C56.0826 91.4142 64.5689 99.9112 74.9995 99.9112C84.5455 99.9112 92.4629 92.7948 93.7375 83.5823H90.3605C89.1141 91.0614 82.6971 96.5695 74.9995 96.5695C66.4084 96.5695 59.4196 89.5714 59.4196 80.9705C59.4196 72.3687 66.4089 65.3711 74.9995 65.3711C82.362 65.3711 88.5897 70.4051 90.1885 77.4858H93.5957C91.9578 68.7009 84.242 62.0299 74.9995 62.0299ZM74.9995 67.8453C67.771 67.8453 61.8907 73.733 61.8907 80.9705C61.8907 88.2076 67.771 94.0953 74.9995 94.0953C81.334 94.0953 86.6375 89.663 87.8484 83.5823H81.8593C81.848 83.5823 81.8361 83.5823 81.8248 83.5818H81.7343C81.0518 83.5818 80.4987 83.0281 80.4987 82.3447V78.723C80.4987 78.0396 81.0518 77.4858 81.7343 77.4858H87.6428C86.1077 71.8209 81.0019 67.8453 74.9995 67.8453ZM89.3118 81.1086H93.6511V79.9606H83.0949V81.1081H89.2772C89.289 81.1081 89.3004 81.1081 89.3118 81.1086ZM48.6168 47.0811C46.5999 47.0811 44.9591 45.4382 44.9591 43.4188C44.9591 41.3993 46.5999 39.7569 48.6168 39.7569C50.6337 39.7569 52.2741 41.3993 52.2741 43.4188C52.2741 45.4382 50.6337 47.0811 48.6168 47.0811ZM48.6168 42.2307C47.9625 42.2307 47.4302 42.7636 47.4302 43.4183C47.4302 44.0735 47.9625 44.6064 48.6168 44.6064C49.2707 44.6064 49.8029 44.0735 49.8029 43.4183C49.8029 42.7636 49.2707 42.2307 48.6168 42.2307ZM71.147 46.4126H66.6837C66.0012 46.4126 65.4481 45.8589 65.4481 45.1755C65.4481 44.4921 66.0012 43.9384 66.6837 43.9384H71.147C71.8296 43.9384 72.3826 44.4921 72.3826 45.1755C72.3826 45.8589 71.8291 46.4126 71.147 46.4126ZM61.3357 46.4126H56.8723C56.1898 46.4126 55.6368 45.8589 55.6368 45.1755C55.6368 44.4921 56.1898 43.9384 56.8723 43.9384H61.3357C62.0182 43.9384 62.5712 44.4921 62.5712 45.1755C62.5712 45.8589 62.0182 46.4126 61.3357 46.4126ZM71.147 42.6513H66.6837C66.0012 42.6513 65.4481 42.0976 65.4481 41.4142C65.4481 40.7308 66.0012 40.1771 66.6837 40.1771H71.147C71.8296 40.1771 72.3826 40.7308 72.3826 41.4142C72.3826 42.0976 71.8291 42.6513 71.147 42.6513ZM61.3357 42.6513H56.8723C56.1898 42.6513 55.6368 42.0976 55.6368 41.4142C55.6368 40.7308 56.1898 40.1771 56.8723 40.1771H61.3357C62.0182 40.1771 62.5712 40.7308 62.5712 41.4142C62.5712 42.0976 62.0182 42.6513 61.3357 42.6513Z" fill="white"/>
</svg>
