<svg width="150" height="150" viewBox="0 0 150 150" fill="none" xmlns="http://www.w3.org/2000/svg">
<path d="M101.263 35H48.7365C46.4975 35 44.676 36.8215 44.676 39.0605V110.94C44.676 113.178 46.4975 115 48.7365 115H101.263C103.502 115 105.324 113.178 105.324 110.94V39.0605C105.324 36.8215 103.502 35 101.263 35ZM47.2678 51.4147H102.732V106.879H47.2678V51.4147ZM102.732 39.0605V48.8229H66.6199V37.5918H101.263C102.073 37.5918 102.732 38.2506 102.732 39.0605ZM48.7365 37.5918H64.0281V48.8229H47.2678V39.0605C47.2678 38.2506 47.9267 37.5918 48.7365 37.5918ZM101.263 112.408H48.7365C47.9267 112.408 47.2678 111.749 47.2678 110.94V109.471H102.732V110.94C102.732 111.749 102.073 112.408 101.263 112.408Z" fill="white"/>
<path d="M75 47.2678C77.239 47.2678 79.0605 45.4463 79.0605 43.2073C79.0605 40.9684 77.239 39.1469 75 39.1469C72.761 39.1469 70.9395 40.9684 70.9395 43.2073C70.9395 45.4463 72.761 47.2678 75 47.2678ZM75 41.7387C75.8099 41.7387 76.4687 42.3975 76.4687 43.2073C76.4687 44.0172 75.8099 44.676 75 44.676C74.1902 44.676 73.5313 44.0172 73.5313 43.2073C73.5313 42.3975 74.1902 41.7387 75 41.7387Z" fill="white"/>
<path d="M51.5011 47.2678H59.7948C60.5105 47.2678 61.0907 46.6876 61.0907 45.9719C61.0907 45.2562 60.5105 44.676 59.7948 44.676H51.5011C50.7854 44.676 50.2052 45.2562 50.2052 45.9719C50.2052 46.6876 50.7854 47.2678 51.5011 47.2678Z" fill="white"/>
<path d="M83.2937 44.5032H87.4406C88.1563 44.5032 88.7365 43.923 88.7365 43.2073C88.7365 42.4917 88.1563 41.9115 87.4406 41.9115H83.2937C82.578 41.9115 81.9978 42.4917 81.9978 43.2073C81.9978 43.923 82.578 44.5032 83.2937 44.5032Z" fill="white"/>
<path d="M92.9698 44.5032H97.1166C97.8323 44.5032 98.4125 43.923 98.4125 43.2073C98.4125 42.4917 97.8323 41.9115 97.1166 41.9115H92.9698C92.2541 41.9115 91.6739 42.4917 91.6739 43.2073C91.6739 43.923 92.2541 44.5032 92.9698 44.5032Z" fill="white"/>
<path d="M95.4918 86.6098L95.5982 94.9029C95.6074 95.6185 96.195 96.1912 96.9107 96.182C97.6263 96.1729 98.199 95.5852 98.1898 94.8696L98.0834 86.5766C98.0742 85.8609 97.4866 85.2882 96.771 85.2974C96.0553 85.3066 95.4826 85.8942 95.4918 86.6098Z" fill="white"/>
<path d="M96.771 105.151C99.01 105.151 100.832 103.33 100.832 101.091C100.832 98.8518 99.01 97.0302 96.771 97.0302C94.5321 97.0302 92.7106 98.8518 92.7106 101.091C92.7106 103.33 94.5321 105.151 96.771 105.151ZM96.771 99.622C97.5809 99.622 98.2397 100.281 98.2397 101.091C98.2397 101.901 97.5809 102.559 96.771 102.559C95.9612 102.559 95.3024 101.901 95.3024 101.091C95.3024 100.281 95.9612 99.622 96.771 99.622Z" fill="white"/>
</svg>
