<svg width="150" height="150" viewBox="0 0 150 150" fill="none" xmlns="http://www.w3.org/2000/svg">
<path d="M73.8241 35H76.1759V45.6823H73.8241V35Z" fill="#05479D"/>
<path d="M84.8284 47.6332L89.518 38.0405L91.6299 39.073L86.9404 48.6657L84.8284 47.6332Z" fill="#05479D"/>
<path d="M93.3138 53.9241L101.742 47.3652L103.186 49.221L94.7579 55.7799L93.3138 53.9241Z" fill="#05479D"/>
<path d="M98.1973 63.3171L108.655 61.1272L109.137 63.4297L98.6794 65.6196L98.1973 63.3171Z" fill="#05479D"/>
<path d="M58.338 39.0632L60.45 38.0308L65.1395 47.6235L63.0275 48.6559L58.338 39.0632Z" fill="#05479D"/>
<path d="M46.7908 49.2259L48.2349 47.3702L56.6632 53.9291L55.2191 55.7849L46.7908 49.2259Z" fill="#05479D"/>
<path d="M40.8874 63.4291L41.3695 61.1266L51.8274 63.3165L51.3453 65.619L40.8874 63.4291Z" fill="#05479D"/>
<path d="M85.0736 80.7952C88.0458 80.121 89.905 77.1706 89.2311 74.1982C88.9249 72.8486 88.1443 71.7284 87.1058 70.9701C90.1183 68.7703 90.1198 64.2653 87.1115 62.0682C88.8966 60.7712 89.7196 58.5327 89.2311 56.3928C88.5585 53.4282 85.6 51.5634 82.6344 52.2354L69.5359 55.2067L70.0562 57.5004L83.1546 54.5292C85.1225 54.0823 87.0166 55.5808 87.0166 57.6158C87.0166 59.0771 85.9808 60.3727 84.5536 60.6961L66.5098 64.7898C64.8154 65.1752 63.1156 64.1189 62.7266 62.4042C62.333 60.6801 63.4529 58.9987 65.1108 58.623L67.7041 58.035L67.1842 55.7413L64.5909 56.3293C62.0621 56.9024 60.296 59.1124 60.296 61.7032C60.296 63.414 61.0883 65.0852 62.5562 66.1556C59.5032 68.3877 59.5838 72.8907 62.5565 75.0582C60.5934 76.4933 59.7433 79.1069 60.6696 81.5045H60.0514V94.8023H62.3134V111.251L67.23 115H82.4343L87.3509 111.251V94.8023H89.6129V89.3287H87.261V92.4498H62.4033V83.8566H87.261V86.9768H89.6129V81.5047H81.9467L85.0736 80.7952ZM65.1109 67.5251L83.154 63.4317C84.8469 63.0471 86.55 64.1086 86.9371 65.8157C87.3238 67.5196 86.2579 69.2123 84.5532 69.599L66.5102 73.6922C64.8069 74.0788 63.1139 73.0134 62.7271 71.3082C62.3404 69.6041 63.4063 67.9117 65.1109 67.5251ZM64.6653 100.674H84.9992V104.352H64.6653V100.674ZM81.6399 112.648H68.0243L64.6652 110.087V106.704H84.999V110.087L81.6399 112.648ZM84.999 98.3224H64.6653V94.8023H84.9992V98.3224H84.999ZM63.355 81.5047C61.8739 79.6845 62.8335 76.9444 65.1109 76.4279L83.154 72.3345C84.8571 71.9474 86.5506 73.0138 86.9373 74.7186C87.3239 76.4231 86.2576 78.115 84.5532 78.5017L71.3166 81.5047H63.355Z" fill="#05479D"/>
<path d="M83.7329 89.3291H75.339V86.9772H83.7329V89.3291ZM72.9871 89.3291H70.6352V86.9772H72.9871V89.3291ZM68.2833 89.3291H65.9314V86.9772H68.2833V89.3291Z" fill="#05479D"/>
</svg>
