<svg width="150" height="150" viewBox="0 0 150 150" fill="none" xmlns="http://www.w3.org/2000/svg">
<path d="M69.5032 35.5682C59.4895 37.6462 51.5151 45.8474 49.6603 55.9757C48.2865 63.4769 50.1251 70.85 54.837 76.7372C57.2603 79.7647 58.5948 83.4615 58.5948 87.1465V93.9058C58.5948 100.368 63.852 105.625 70.314 105.625H79.6893C86.1513 105.625 91.4085 100.368 91.4085 93.9058V87.1419C91.4085 83.4173 92.7021 79.7728 95.0512 76.8802C98.8016 72.2614 100.784 66.6941 100.784 60.7796C100.784 44.5441 85.9313 32.159 69.5032 35.5682ZM79.6893 100.937H70.314C67.2581 100.937 64.6515 98.9623 63.684 96.2339H86.319C85.352 98.9623 82.7451 100.937 79.6893 100.937ZM72.6578 60.7796C72.6578 59.4872 73.7092 58.4357 75.0017 58.4357C76.294 58.4357 77.3456 59.4871 77.3456 60.7796C77.3456 62.0721 76.2942 63.1235 75.0017 63.1235C73.7092 63.1235 72.6578 62.0721 72.6578 60.7796ZM91.4118 73.925C88.3866 77.6506 86.7207 82.3444 86.7207 87.1417V91.5618H77.3454V67.408C77.5798 67.3249 77.809 67.2306 78.0312 67.1241L83.2882 72.3811C84.2034 73.2964 85.6876 73.2964 86.6029 72.3811C87.5182 71.4658 87.5182 69.9817 86.6029 69.0664L81.3459 63.8094C81.4524 63.5871 81.5466 63.358 81.6299 63.1236H89.0646C90.359 63.1236 91.4085 62.0742 91.4085 60.7799C91.4085 59.4855 90.3591 58.436 89.0646 58.436H81.6299C81.5468 58.2016 81.4526 57.9724 81.3459 57.7502L86.6029 52.4932C87.5182 51.5779 87.5182 50.0938 86.6029 49.1785C85.6879 48.2632 84.2037 48.2632 83.2882 49.1785L78.0312 54.4353C77.8088 54.3288 77.5798 54.2346 77.3454 54.1514V46.7168C77.3454 45.4224 76.296 44.3729 75.0015 44.3729C73.7071 44.3729 72.6576 45.4222 72.6576 46.7168V54.1514C72.4232 54.2346 72.194 54.3288 71.9718 54.4353L66.715 49.1783C65.7998 48.263 64.3156 48.2632 63.4003 49.1783C62.485 50.0936 62.485 51.5777 63.4003 52.493L68.6573 57.75C68.5507 57.9724 68.4565 58.2014 68.3732 58.4358H60.9386C59.6442 58.4358 58.5948 59.4852 58.5948 60.7797C58.5948 62.0742 59.6442 63.1236 60.9386 63.1236H68.3732C68.4564 63.358 68.5506 63.5872 68.6573 63.8094L63.4003 69.0664C62.485 69.9817 62.485 71.4658 63.4003 72.3811C64.3154 73.2964 65.7996 73.2964 66.715 72.3811L71.972 67.1241C72.1943 67.2306 72.4234 67.3249 72.6578 67.408V91.562H63.2825V87.1467C63.2825 82.4008 61.5829 77.6637 58.4968 73.8081C54.6465 68.9978 53.1461 62.9649 54.2714 56.8203C55.7861 48.5486 62.2903 41.8527 70.4559 40.158C83.9413 37.3596 96.096 47.4852 96.096 60.7794C96.096 65.6053 94.4763 70.1511 91.4118 73.925Z" fill="#05479D"/>
<path d="M79.6893 110.312H70.314C69.0196 110.312 67.9701 111.362 67.9701 112.656C67.9701 113.95 69.0195 115 70.314 115H79.6893C80.9837 115 82.0332 113.951 82.0332 112.656C82.033 111.362 80.9837 110.312 79.6893 110.312Z" fill="#05479D"/>
</svg>
