<svg width="150" height="150" viewBox="0 0 150 150" fill="none" xmlns="http://www.w3.org/2000/svg">
<path d="M100.243 66.1999C103.506 49.6411 91.0412 35 74.9915 35C58.9789 35 46.4808 49.5892 49.7382 66.192C49.7693 66.3494 49.8206 66.5142 49.8743 66.6461L63.2727 99.1814V106.373C63.2727 111.13 67.1277 115 71.8665 115H78.1165C82.8546 115 86.7102 111.13 86.7102 106.373V99.1814C100.847 64.8522 100.175 66.5435 100.243 66.1999V66.1999ZM67.1833 96.3616L55.5445 68.0981H61.6071L67.4262 96.3616H67.1833ZM72.2125 96.3616L66.3935 68.0981H72.6477V96.3616H72.2125ZM77.3352 96.3616V68.0981H83.5895L77.7698 96.3616H77.3352ZM82.7991 96.3616H82.5568L88.3764 68.0981H94.4384C93.8751 69.4653 83.2342 95.3038 82.7991 96.3616ZM74.9915 39.7058C87.4933 39.7058 97.373 50.567 95.9381 63.3923C95.4498 63.3923 55.4541 63.3923 54.0448 63.3923C52.6111 50.5798 62.4775 39.7058 74.9915 39.7058V39.7058ZM82.0227 106.373C82.0227 108.534 80.2704 110.294 78.1165 110.294H71.8665C69.7125 110.294 67.9602 108.534 67.9602 106.373V101.067H82.0227V106.373Z" fill="white"/>
</svg>
