<svg width="150" height="150" viewBox="0 0 150 150" fill="none" xmlns="http://www.w3.org/2000/svg">
<path d="M88.8697 61.8672C86.3933 60.0275 84.9148 57.0845 84.9148 53.9947V46.847V41.9951C84.9148 39.2408 82.6232 37 79.8065 37H70.1935C67.3768 37 65.0852 39.2408 65.0852 41.9951V54.0949C65.0852 57.1545 63.6221 60.0035 61.0711 61.9113C55.3402 66.1974 52.0532 72.6971 52.0532 79.7434C52.053 92.0998 62.3931 102.265 75.1965 102.181C87.7919 102.078 97.947 92.0771 97.947 79.7436C97.9468 72.6684 94.6384 66.1527 88.8697 61.8672V61.8672ZM68.0813 41.9951C68.0813 40.8563 69.0288 39.9297 70.1935 39.9297H79.8065C80.9712 39.9297 81.9187 40.8562 81.9187 41.9951V45.3821H68.0813V41.9951ZM75.0009 99.2522C64.0857 99.2519 55.0493 90.5324 55.0493 79.7434C55.0493 73.617 57.9077 67.9656 62.8914 64.2383C66.1897 61.7714 68.0815 58.0743 68.0815 54.0947V48.3118H81.9188V53.9947C81.9188 57.9947 83.8398 61.8098 87.0574 64.2001C92.0738 67.9267 94.9509 73.5921 94.9509 79.7436C94.9507 90.5194 86.0307 99.2522 75.0009 99.2522V99.2522Z" fill="#05479D"/>
<path d="M75 104.879C74.1726 104.879 73.502 105.535 73.502 106.344V110.535C73.502 111.344 74.1726 112 75 112C75.8274 112 76.498 111.344 76.498 110.535V106.344C76.498 105.535 75.8274 104.879 75 104.879Z" fill="#05479D"/>
<path d="M56.849 99.6086C56.223 99.0796 55.2768 99.1475 54.736 99.7592L51.9338 102.93C51.3929 103.543 51.4619 104.468 52.0879 104.996C52.3712 105.236 52.7197 105.353 53.0668 105.353C53.487 105.353 53.9048 105.181 54.2009 104.846L57.0032 101.675C57.5441 101.062 57.475 100.138 56.849 99.6086V99.6086Z" fill="#05479D"/>
<path d="M95.264 99.7593C94.723 99.147 93.7769 99.0793 93.151 99.6087C92.525 100.138 92.4559 101.063 92.9968 101.675L95.7991 104.846C96.0954 105.181 96.5132 105.353 96.9332 105.353C97.2802 105.353 97.6289 105.236 97.912 104.997C98.5381 104.468 98.6071 103.543 98.0662 102.931L95.264 99.7593Z" fill="#05479D"/>
<path d="M47.7841 83.6447H43.498C42.6707 83.6447 42 84.3007 42 85.1096C42 85.9185 42.6707 86.5744 43.498 86.5744H47.7841C48.6114 86.5744 49.2821 85.9185 49.2821 85.1096C49.2821 84.3007 48.6114 83.6447 47.7841 83.6447Z" fill="#05479D"/>
<path d="M49.9327 65.3948L46.2267 63.2896C45.5113 62.8829 44.5945 63.1208 44.1789 63.8203C43.7633 64.5197 44.0063 65.4164 44.7216 65.8227L48.4276 67.928C48.6645 68.0626 48.9233 68.1265 49.1788 68.1265C49.695 68.1265 50.1974 67.8651 50.4755 67.3971C50.891 66.6977 50.648 65.8012 49.9327 65.3948V65.3948Z" fill="#05479D"/>
<path d="M101.572 67.928L105.278 65.8227C105.994 65.4164 106.237 64.5197 105.821 63.8203C105.406 63.1208 104.489 62.8829 103.773 63.2896L100.067 65.3948C99.352 65.8012 99.109 66.6978 99.5244 67.3973C99.8024 67.8651 100.305 68.1266 100.821 68.1266C101.077 68.1265 101.336 68.0626 101.572 67.928V67.928Z" fill="#05479D"/>
<path d="M106.502 83.6447H102.216C101.389 83.6447 100.718 84.3007 100.718 85.1096C100.718 85.9185 101.389 86.5744 102.216 86.5744H106.502C107.329 86.5744 108 85.9185 108 85.1096C108 84.3007 107.329 83.6447 106.502 83.6447Z" fill="#05479D"/>
<path d="M89.9819 77.8949C89.1545 77.8949 88.4839 78.5509 88.4839 79.3598C88.4839 84.532 85.3682 89.2507 80.5466 91.3816C79.7927 91.7147 79.4577 92.5825 79.7984 93.3196C80.0487 93.861 80.5938 94.1816 81.1644 94.1816C82.8324 94.1816 91.4799 89.1388 91.4799 79.3596C91.4799 78.5507 90.8093 77.8949 89.9819 77.8949Z" fill="#05479D"/>
<path d="M73.9409 93.3143C73.3585 93.8838 73.3577 94.8155 73.9409 95.3857C74.5248 95.9567 75.4746 95.9572 76.0591 95.3857C76.641 94.8168 76.6449 93.8874 76.0591 93.3143C75.4872 92.7527 74.5346 92.7338 73.9409 93.3143Z" fill="#05479D"/>
</svg>
