<svg width="150" height="150" viewBox="0 0 150 150" fill="none" xmlns="http://www.w3.org/2000/svg">
<path d="M35 46.8534V98.4533H39.6913V103.146H44.3787V98.4533H105.621V103.146H110.309V98.4533H115V46.8534H35ZM110.312 93.7659H39.6875V51.5409H110.312V93.7659Z" fill="#05479D"/>
<path d="M96.1734 56.2359H91.4828V60.9234H96.1734V56.2359Z" fill="#05479D"/>
<path d="M105.627 56.2359H100.936V60.9234H105.627V56.2359Z" fill="#05479D"/>
<path d="M96.1734 65.6189H91.4828V70.3064H96.1734V65.6189Z" fill="#05479D"/>
<path d="M105.627 65.6189H100.936V70.3064H105.627V65.6189Z" fill="#05479D"/>
<path d="M96.1734 75.0016H91.4828V79.6891H96.1734V75.0016Z" fill="#05479D"/>
<path d="M105.627 75.0016H100.936V79.6891H105.627V75.0016Z" fill="#05479D"/>
<path d="M105.627 84.3828H91.4828V89.0703H105.627V84.3828Z" fill="#05479D"/>
<path d="M44.375 56.2284V89.0708H86.7969V56.2284H44.375ZM82.1094 84.3834H49.0625V60.9159H82.1094V84.3834Z" fill="#05479D"/>
</svg>
