<svg width="150" height="150" viewBox="0 0 150 150" fill="none" xmlns="http://www.w3.org/2000/svg">
<path d="M45.3673 35V115H104.633V35H45.3673ZM102.184 112.551H47.8162V107H102.184V112.551ZM102.184 104.551H47.8162V37.4489H102.184V104.551Z" fill="#05479D"/>
<path d="M50.2653 39.898V54.4286H99.7347V39.898H50.2653ZM97.2858 51.9795H52.7142V42.3469H97.2856V51.9795H97.2858Z" fill="#05479D"/>
<path d="M50.2653 61.2858V98.0205H99.7347V61.2858H50.2653ZM97.2858 95.5714H52.7142V63.7347H97.2856V95.5714H97.2858Z" fill="#05479D"/>
<path d="M55.1633 69.4489V93.1223H94.8367V69.4489H55.1633ZM92.3878 90.6734H57.6122V88.2245H92.3877V90.6734H92.3878ZM92.3878 85.7755H57.6122V71.898H92.3877V85.7755H92.3878Z" fill="#05479D"/>
<path d="M93.6123 65.3673H56.3878V67.8162H93.6123V65.3673Z" fill="#05479D"/>
<path d="M59.3266 43C57.0309 43 55.1633 44.8677 55.1633 47.1633C55.1633 49.4589 57.0309 51.3266 59.3266 51.3266C61.6222 51.3266 63.4898 49.4589 63.4898 47.1633C63.4898 44.8677 61.6222 43 59.3266 43ZM59.3266 48.8775C58.3813 48.8775 57.6123 48.1086 57.6123 47.1633C57.6123 46.218 58.3813 45.4491 59.3266 45.4491C60.2719 45.4491 61.0408 46.218 61.0408 47.1633C61.0408 48.1086 60.2719 48.8775 59.3266 48.8775Z" fill="#05479D"/>
<path d="M69.7755 43C67.4798 43 65.6122 44.8677 65.6122 47.1633C65.6122 49.4589 67.4798 51.3266 69.7755 51.3266C72.0711 51.3266 73.9387 49.4589 73.9387 47.1633C73.9387 44.8677 72.0712 43 69.7755 43ZM69.7755 48.8775C68.8302 48.8775 68.0612 48.1086 68.0612 47.1633C68.0612 46.218 68.8302 45.4491 69.7755 45.4491C70.7208 45.4491 71.4897 46.218 71.4897 47.1633C71.4897 48.1086 70.7208 48.8775 69.7755 48.8775Z" fill="#05479D"/>
<path d="M80.2245 43C77.9291 43 76.0612 44.8677 76.0612 47.1633C76.0612 49.4589 77.9291 51.3266 80.2245 51.3266C82.52 51.3266 84.3878 49.4589 84.3878 47.1633C84.3878 44.8677 82.52 43 80.2245 43ZM80.2245 48.8775C79.2792 48.8775 78.5103 48.1086 78.5103 47.1633C78.5103 46.218 79.2792 45.4491 80.2245 45.4491C81.1698 45.4491 81.9387 46.218 81.9387 47.1633C81.9387 48.1086 81.1698 48.8775 80.2245 48.8775Z" fill="#05479D"/>
<path d="M90.6734 43C88.378 43 86.5102 44.8677 86.5102 47.1633C86.5102 49.4589 88.378 51.3266 90.6734 51.3266C92.9689 51.3266 94.8367 49.4589 94.8367 47.1633C94.8367 44.8677 92.9689 43 90.6734 43ZM90.6734 48.8775C89.7281 48.8775 88.9592 48.1086 88.9592 47.1633C88.9592 46.218 89.7281 45.4491 90.6734 45.4491C91.6188 45.4491 92.3877 46.218 92.3877 47.1633C92.3877 48.1086 91.6188 48.8775 90.6734 48.8775Z" fill="#05479D"/>
</svg>
