<svg width="150" height="150" viewBox="0 0 150 150" fill="none" xmlns="http://www.w3.org/2000/svg">
<path d="M114.998 60.3582C114.991 60.1515 114.944 59.945 114.858 59.757L103.918 35.9109C103.663 35.3558 103.109 35 102.498 35H47.4979C46.8871 35 46.3322 35.3559 46.0775 35.9112L35.1422 59.7571C35.0494 59.959 35 60.186 35 60.4084V103.215C35 104.943 36.0678 106.425 37.5777 107.039V109.606C37.5777 112.58 39.9955 115 42.967 115H107.029C110 115 112.418 112.58 112.418 109.606V107.04C113.93 106.426 115 104.944 115 103.215V60.4084C115 60.3915 114.998 60.375 114.998 60.3582V60.3582ZM111.002 58.8459H76.5603V38.125H101.496L111.002 58.8459ZM48.5004 38.125H73.4352V58.8459H38.9981L48.5004 38.125ZM107.029 111.875H42.967C41.7185 111.875 40.7028 110.857 40.7028 109.606V107.342H67.9822C68.8451 107.342 69.5448 106.642 69.5448 105.78C69.5448 104.917 68.8451 104.217 67.9822 104.217H39.127C38.5839 104.217 38.1251 103.758 38.1251 103.215V61.9709H111.875V103.215C111.875 103.758 111.414 104.217 110.869 104.217H82.0136C81.1507 104.217 80.451 104.917 80.451 105.78C80.451 106.642 81.1507 107.342 82.0136 107.342H109.293V109.606C109.293 110.857 108.277 111.875 107.029 111.875V111.875Z" fill="#05479D"/>
<path d="M89.2103 99.7019C89.6166 99.7019 90.0163 99.5435 90.3155 99.2443C90.7705 98.7893 90.9001 98.1016 90.6418 97.5122L81.6411 76.9723C83.4972 74.4107 83.4017 70.9432 81.2624 68.8038C79.7093 67.2507 77.4047 66.7257 75.2095 67.3718C70.4456 64.6046 64.3312 65.3663 60.3836 69.314C56.4405 73.262 55.679 79.3769 58.4418 84.141C57.7927 86.3346 58.3158 88.6371 59.869 90.1902C60.9639 91.2877 62.4522 91.8927 64.0598 91.8936H64.0635C65.4704 91.8935 66.8723 91.4201 68.0457 90.5711L88.5833 99.5705C88.7855 99.6589 88.9988 99.7019 89.2103 99.7019V99.7019ZM64.0619 88.7685C63.2897 88.768 62.5866 88.4891 62.0803 87.9816C61.2495 87.151 61.0614 85.8171 61.6009 84.584C61.815 84.0944 61.7642 83.5294 61.4661 83.086C59.0366 79.4726 59.5113 74.6093 62.5942 71.5229C64.3601 69.757 66.7073 68.8467 69.0696 68.8467C70.8343 68.8467 72.6075 69.3549 74.1519 70.3945C74.5946 70.6921 75.1584 70.744 75.6478 70.531C76.8848 69.9929 78.2214 70.1824 79.0527 71.0134C80.2263 72.1871 80.0652 74.2577 78.6921 75.6309C77.7639 76.5623 76.4728 76.9668 75.3237 76.6863C74.7801 76.5535 74.2072 76.722 73.8214 77.1271C73.4357 77.5324 73.2963 78.113 73.4555 78.6493C73.7689 79.704 73.4783 80.8446 72.697 81.626C71.9159 82.4069 70.7715 82.6988 69.7112 82.3874C69.1744 82.2304 68.5946 82.3713 68.1903 82.7583C67.7863 83.1454 67.62 83.7187 67.7542 84.2616C68.0336 85.3918 67.6383 86.6683 66.7251 87.6007C66.7025 87.6215 66.6811 87.6438 66.6597 87.666C65.9393 88.3669 64.9968 88.7685 64.0638 88.7685C64.0632 88.7685 64.0626 88.7685 64.0619 88.7685V88.7685ZM70.1868 88.0972C70.5943 87.3172 70.849 86.4758 70.9342 85.6241C72.4092 85.5347 73.8282 84.9144 74.9071 83.8357C75.9871 82.7557 76.6068 81.3379 76.6945 79.8649C77.5481 79.7794 78.39 79.5243 79.1688 79.1165L86.1742 95.1029L70.1868 88.0972Z" fill="#05479D"/>
<path d="M68.4385 41.5639H51.7099C51.0991 41.5639 50.5442 41.9197 50.2895 42.475L45.3733 53.1932C45.1514 53.677 45.1911 54.2403 45.4784 54.6882C45.7658 55.1362 46.2614 55.4071 46.7936 55.4071H68.4383C69.3012 55.4071 70.0009 54.7075 70.0009 53.8447V43.1264C70.001 42.2634 69.3013 41.5639 68.4385 41.5639ZM66.8759 52.282H49.2293L52.7122 44.6887H66.8759V52.282Z" fill="#05479D"/>
<path d="M81.5617 55.407H103.206C103.739 55.407 104.234 55.1362 104.522 54.6881C104.809 54.24 104.849 53.6767 104.627 53.1931L99.7106 42.475C99.4559 41.9197 98.9011 41.5639 98.2903 41.5639H81.5617C80.6988 41.5639 79.9991 42.2636 79.9991 43.1264V53.8447C79.9991 54.7075 80.6988 55.407 81.5617 55.407ZM83.1242 44.6889H97.2879L100.771 52.2822H83.1242V44.6889Z" fill="#05479D"/>
<path d="M96.5054 99.2768H106.816C107.679 99.2768 108.379 98.5771 108.379 97.7143C108.379 96.8514 107.679 96.1518 106.816 96.1518H96.5054C95.6425 96.1518 94.9428 96.8514 94.9428 97.7143C94.9428 98.5771 95.6424 99.2768 96.5054 99.2768Z" fill="#05479D"/>
<path d="M96.5054 91.969H106.816C107.679 91.969 108.379 91.2693 108.379 90.4065C108.379 89.5436 107.679 88.844 106.816 88.844H96.5054C95.6425 88.844 94.9428 89.5436 94.9428 90.4065C94.9428 91.2693 95.6424 91.969 96.5054 91.969Z" fill="#05479D"/>
<path d="M74.9977 104.217C74.1349 104.217 73.4352 104.917 73.4352 105.78C73.4352 106.642 74.1349 107.342 74.9977 107.342H75.0068C75.8696 107.342 76.565 106.642 76.565 105.78C76.565 104.917 75.8607 104.217 74.9977 104.217V104.217Z" fill="#05479D"/>
</svg>
