<svg width="150" height="150" viewBox="0 0 150 150" fill="none" xmlns="http://www.w3.org/2000/svg">
<path d="M90.0269 97.6951H89.9621C89.207 97.6951 88.5949 98.3073 88.5949 99.0623C88.5949 99.8173 89.207 100.429 89.9621 100.429H90.0269C90.782 100.429 91.3941 99.8173 91.3941 99.0623C91.3941 98.3073 90.7822 97.6951 90.0269 97.6951Z" fill="white"/>
<path d="M103.164 97.6951H94.0035C93.2484 97.6951 92.6364 98.3073 92.6364 99.0623C92.6364 99.8173 93.2484 100.429 94.0035 100.429H103.164C103.919 100.429 104.531 99.8173 104.531 99.0623C104.531 98.3073 103.919 97.6951 103.164 97.6951Z" fill="white"/>
<path d="M105.898 40H44.1016C41.84 40 40 41.84 40 44.1016V101.797C40 104.058 41.84 105.898 44.1014 105.898V106.582C44.1014 108.467 45.6349 110 47.5195 110H51.6211C53.5057 110 55.0392 108.467 55.0392 106.582V105.898H94.9608V106.582C94.9608 108.467 96.4943 110 98.3789 110H102.48C104.365 110 105.898 108.467 105.898 106.582V105.898C108.16 105.898 110 104.058 110 101.797V44.1016C110 41.84 108.16 40 105.898 40ZM42.7344 48.2031H59.1405V49.5703C59.1405 50.3242 58.5273 50.9375 57.7734 50.9375H42.7344V48.2031ZM52.3048 106.582C52.3048 106.952 51.9917 107.265 51.6211 107.265H47.5195C47.1489 107.265 46.8358 106.952 46.8358 106.582V105.898H52.3048V106.582ZM103.164 106.582C103.164 106.952 102.851 107.265 102.48 107.265H98.3789C98.0084 107.265 97.6952 106.952 97.6952 106.582V105.898H103.164V106.582ZM107.266 101.797C107.266 102.551 106.652 103.164 105.898 103.164H104.531H96.328H53.672H45.4686H44.1016C43.3477 103.164 42.7344 102.551 42.7344 101.797V53.6718H57.7734C60.0349 53.6718 61.8748 51.832 61.8748 49.5703V48.2031H107.266V101.797ZM107.266 45.4685H42.7344V44.1013C42.7344 43.3476 43.3477 42.7344 44.1016 42.7344H105.898C106.652 42.7344 107.266 43.3474 107.266 44.1013V45.4685Z" fill="white"/>
<path d="M85.1272 78.4645L81.7706 75.6835L85.1272 72.9027C85.7088 72.4212 85.7896 71.5593 85.3079 70.9777C84.8263 70.3963 83.9643 70.3154 83.3828 70.7972L79.135 74.3163H76.3671V71.5486L79.8862 67.3008C80.3679 66.7194 80.2872 65.8574 79.7058 65.3758C79.1244 64.8938 78.2624 64.9749 77.7808 65.5562L74.9999 68.9125L72.2191 65.556C71.7371 64.9746 70.8754 64.8937 70.2939 65.3755C69.7125 65.8572 69.6315 66.7192 70.1133 67.3005L73.6327 71.5483V74.3161H70.865L66.6173 70.7969C66.0358 70.315 65.1741 70.3961 64.6922 70.9774C64.2105 71.559 64.2913 72.4207 64.8728 72.9024L68.2295 75.6833L64.8728 78.4644C64.2913 78.946 64.2104 79.8081 64.6923 80.3894C64.9627 80.7157 65.3528 80.8844 65.7459 80.8844C66.0531 80.8844 66.3622 80.7813 66.6173 80.5698L70.865 77.0504H73.6327V79.8182L70.1133 84.0663C69.6317 84.6479 69.7125 85.5099 70.2941 85.9916C70.5491 86.2028 70.858 86.3059 71.1654 86.3059C71.5584 86.3059 71.9486 86.1372 72.2191 85.8108L74.9999 82.4541L77.7806 85.811C78.2622 86.3923 79.1242 86.4729 79.7058 85.9917C80.2871 85.51 80.368 84.648 79.8864 84.0667L76.3671 79.8183V77.0507H79.1348L83.3827 80.5701C83.6379 80.7816 83.9469 80.8847 84.2543 80.8847C84.6473 80.8847 85.0375 80.716 85.3077 80.3897C85.7895 79.8082 85.7088 78.9463 85.1272 78.4645Z" fill="white"/>
<path d="M74.9999 61.7773C74.245 61.7773 73.6328 62.3894 73.6328 63.1445V63.2225C73.6328 63.9773 74.245 64.5896 74.9999 64.5896C75.755 64.5896 76.3671 63.9773 76.3671 63.2225V63.1445C76.3671 62.3894 75.755 61.7773 74.9999 61.7773Z" fill="white"/>
<path d="M62.539 74.3162H62.4611C61.706 74.3162 61.0939 74.9286 61.0939 75.6834C61.0939 76.4385 61.706 77.0506 62.4611 77.0506H62.539C63.2941 77.0506 63.9062 76.4385 63.9062 75.6834C63.9062 74.9284 63.2941 74.3162 62.539 74.3162Z" fill="white"/>
<path d="M74.9999 86.7775C74.245 86.7775 73.6328 87.3896 73.6328 88.1447V88.2224C73.6328 88.9773 74.245 89.5896 74.9999 89.5896C75.755 89.5896 76.3671 88.9773 76.3671 88.2224V88.1447C76.3671 87.3896 75.755 86.7775 74.9999 86.7775Z" fill="white"/>
<path d="M87.5389 74.3162H87.4611C86.706 74.3162 86.0939 74.9286 86.0939 75.6834C86.0939 76.4385 86.706 77.0506 87.4611 77.0506H87.5389C88.2939 77.0506 88.9061 76.4385 88.9061 75.6834C88.9061 74.9284 88.2939 74.3162 87.5389 74.3162Z" fill="white"/>
</svg>
