<svg width="150" height="150" viewBox="0 0 150 150" fill="none" xmlns="http://www.w3.org/2000/svg">
<g clip-path="url(#clip0)">
<path d="M101.646 48.0581C102.293 48.0581 102.818 47.5334 102.818 46.8862V39.3831C102.818 36.9662 100.852 35 98.4349 35H51.5652C49.1483 35 47.182 36.9662 47.182 39.3833V105.73C47.182 108.147 49.1483 110.113 51.5653 110.113H52.3839V112.248C52.3839 113.766 53.6184 115 55.1359 115H58.4599C59.9774 115 61.2119 113.766 61.2119 112.248V110.113H88.7889V112.248C88.7889 113.766 90.0234 115 91.5409 115H94.8649C96.3824 115 97.6169 113.766 97.6169 112.248V110.113H98.4355C100.852 110.113 102.819 108.147 102.819 105.73V52.3647C102.819 51.7175 102.294 51.1928 101.647 51.1928C101 51.1928 100.475 51.7175 100.475 52.3647V61.9073H67.117C66.4698 61.9073 65.9452 62.432 65.9452 63.0792C65.9452 63.7264 66.4698 64.2511 67.117 64.2511H100.474V105.73C100.474 106.855 99.5595 107.77 98.4349 107.77H51.5652C50.4406 107.77 49.5256 106.855 49.5256 105.73V64.2509H61.6388C62.2859 64.2509 62.8106 63.7262 62.8106 63.0791C62.8106 62.4319 62.2859 61.9072 61.6388 61.9072H49.5256V39.3833C49.5256 38.2587 50.4406 37.3438 51.5652 37.3438H98.4349C99.5595 37.3438 100.474 38.2587 100.474 39.3833V46.8864C100.474 47.5334 100.999 48.0581 101.646 48.0581V48.0581ZM58.8678 112.248C58.8678 112.473 58.6847 112.656 58.4595 112.656H55.1356C54.9105 112.656 54.7273 112.473 54.7273 112.248V110.113H58.8678V112.248ZM95.2725 112.248C95.2725 112.473 95.0894 112.656 94.8642 112.656H91.5403C91.3152 112.656 91.132 112.473 91.132 112.248V110.113H95.2725V112.248Z" fill="white"/>
<path d="M52.5017 44.1597V55.0912C52.5017 56.9214 53.9906 58.4103 55.8208 58.4103C57.6509 58.4103 59.1398 56.9214 59.1398 55.0912V44.1597C59.1398 42.3295 57.6509 40.8406 55.8208 40.8406C53.9906 40.8406 52.5017 42.3295 52.5017 44.1597V44.1597ZM56.7963 44.1597V55.0912C56.7963 55.6291 56.3586 56.0666 55.8208 56.0666C55.283 56.0666 54.8453 55.6291 54.8453 55.0912V44.1597C54.8453 43.6219 55.283 43.1842 55.8208 43.1842C56.3586 43.1842 56.7963 43.6219 56.7963 44.1597Z" fill="white"/>
<path d="M52.5017 70.3225V81.2541C52.5017 83.0842 53.9906 84.5731 55.8208 84.5731C57.6509 84.5731 59.1398 83.0842 59.1398 81.2541V70.3225C59.1398 68.4923 57.6509 67.0034 55.8208 67.0034C53.9906 67.0034 52.5017 68.4923 52.5017 70.3225V70.3225ZM56.7963 70.3225V81.2541C56.7963 81.7919 56.3586 82.2295 55.8208 82.2295C55.283 82.2295 54.8453 81.7919 54.8453 81.2541V70.3225C54.8453 69.7847 55.283 69.347 55.8208 69.347C56.3586 69.347 56.7963 69.7847 56.7963 70.3225V70.3225Z" fill="white"/>
</g>
<defs>
<clipPath id="clip0">
<rect width="80" height="80" fill="white" transform="translate(35 35)"/>
</clipPath>
</defs>
</svg>
