<svg width="150" height="150" viewBox="0 0 150 150" fill="none" xmlns="http://www.w3.org/2000/svg">
<path d="M91.4062 35H58.5938C55.5779 35 53.125 37.8033 53.125 41.25V102.5C53.125 105.947 55.5779 108.75 58.5938 108.75H59.9609V110.312C59.9609 112.897 61.8013 115 64.0625 115H65.4297C66.9379 115 68.1641 113.599 68.1641 111.875V108.75H81.8359V111.875C81.8359 113.599 83.0621 115 84.5703 115H85.9375C88.1987 115 90.0391 112.897 90.0391 110.312V108.75H91.4062C94.4221 108.75 96.875 105.947 96.875 102.5V41.25C96.875 37.8033 94.4221 35 91.4062 35ZM65.4297 111.875H64.0625C63.3089 111.875 62.6953 111.174 62.6953 110.312V108.75H65.4297L65.4313 111.875C65.4313 111.875 65.4313 111.875 65.4297 111.875ZM87.3047 110.312C87.3047 111.174 86.6911 111.875 85.9375 111.875H84.5703V108.75H87.3047V110.312ZM94.1406 102.5C94.1406 104.224 92.9144 105.625 91.4062 105.625H58.5938C57.0856 105.625 55.8594 104.224 55.8594 102.5V65H94.1406V102.5ZM94.1406 61.875H55.8594V41.25C55.8594 39.5264 57.0856 38.125 58.5938 38.125H91.4062C92.9144 38.125 94.1406 39.5264 94.1406 41.25V61.875Z" fill="#05479D"/>
<path d="M70.923 58.75H61.3527C59.845 58.75 58.6183 57.348 58.6183 55.625V54.0625C58.6183 51.4777 60.4581 49.375 62.7199 49.375H69.5558C71.8176 49.375 73.6574 51.4777 73.6574 54.0625V55.625C73.6574 57.348 72.4306 58.75 70.923 58.75ZM62.7199 52.5C61.9658 52.5 61.3527 53.2007 61.3527 54.0625V55.625H70.9235L70.923 54.0625C70.923 53.2007 70.3099 52.5 69.5558 52.5H62.7199Z" fill="#05479D"/>
<path d="M69.5558 77.5H62.7199C60.4581 77.5 58.6183 75.3973 58.6183 72.8125V71.25C58.6183 69.527 59.845 68.125 61.3527 68.125H70.923C72.4306 68.125 73.6574 69.527 73.6574 71.25V72.8125C73.6574 75.3973 71.8176 77.5 69.5558 77.5ZM61.3527 71.25V72.8125C61.3527 73.6743 61.9658 74.375 62.7199 74.375H69.5558C70.3099 74.375 70.923 73.6743 70.923 72.8125V71.25H61.3527Z" fill="#05479D"/>
<path d="M90.0391 102.5C89.2839 102.5 88.6719 101.801 88.6719 100.938V88.4375C88.6719 87.5745 89.2839 86.875 90.0391 86.875C90.7942 86.875 91.4062 87.5745 91.4062 88.4375V100.938C91.4062 101.801 90.7942 102.5 90.0391 102.5Z" fill="#05479D"/>
<path d="M90.0417 83.75C89.2866 83.75 88.674 83.0505 88.674 82.1875C88.674 81.3245 89.2855 80.625 90.0407 80.625H90.0417C90.7969 80.625 91.4089 81.3245 91.4089 82.1875C91.4089 83.0505 90.7969 83.75 90.0417 83.75Z" fill="#05479D"/>
</svg>
