<svg width="150" height="150" viewBox="0 0 150 150" fill="none" xmlns="http://www.w3.org/2000/svg">
<path d="M56.0938 35C44.4627 35 35 44.4627 35 56.0938C35 64.6438 40.1134 72.0217 47.4425 75.3308C48.063 76.6128 49.0625 79.1505 49.0625 82.1875C49.0625 85.7048 47.6888 89.523 44.375 92.9355V93.9062C44.375 97.7319 46.2181 101.135 49.0625 103.275V103.281C49.0625 109.743 54.3195 115 60.7812 115H65.4688C74.6358 115 82.4556 109.122 85.3577 100.938H96.6531C97.6206 103.665 100.226 105.625 103.281 105.625H115V100.938H110.312V96.25H115V91.5625C112.794 91.5625 106.041 91.5625 103.281 91.5625C100.226 91.5625 97.6206 93.5222 96.6531 96.25H86.4331C86.5186 95.4802 86.5625 94.6984 86.5625 93.9062V89.2188C86.5625 85.3417 83.4083 82.1875 79.5312 82.1875C75.6542 82.1875 72.5 85.3417 72.5 89.2188C72.5 94.4019 75.8825 98.8098 80.5559 100.351C78.0467 106.203 72.2287 110.312 65.4688 110.312H60.7812C57.6612 110.312 55.0108 108.269 54.0941 105.451C54.7444 105.563 55.4119 105.625 56.0938 105.625H62.2298C66.1406 97.6869 67.8125 88.4356 67.8125 79.8438V75.625C79.7811 73.2595 95.0239 68.9366 98.5447 67.9228L115 73.4081V38.7794L98.5447 44.2645C93.6344 42.8508 65.9237 35 56.0938 35V35ZM103.281 96.25H105.625V100.938H103.281C101.989 100.938 100.938 99.8861 100.938 98.5938C100.938 97.3014 101.989 96.25 103.281 96.25ZM77.1875 89.2188C77.1875 87.9264 78.2389 86.875 79.5312 86.875C80.8236 86.875 81.875 87.9264 81.875 89.2188V93.9062C81.875 94.5495 81.8378 95.1844 81.7653 95.8084C79.0945 94.8108 77.1875 92.2333 77.1875 89.2188ZM59.2484 100.938H56.0938C52.4975 100.938 49.5234 98.2241 49.1112 94.7369C49.6875 94.0375 50.5206 92.9144 51.3225 91.4383C53.4564 94.3525 56.9006 96.25 60.7812 96.25H60.8458C60.2506 98.3258 59.6611 99.9191 59.2484 100.938V100.938ZM63.125 79.8438C63.125 84.2852 62.6325 88.2484 61.9762 91.5625H60.7812C56.9042 91.5625 53.75 88.4083 53.75 84.5312V82.1875C53.75 80.2442 53.447 78.4734 53.0366 76.9652C54.035 77.1108 55.0556 77.1875 56.0938 77.1875C57.9114 77.1875 60.3417 76.9184 63.125 76.4719V79.8438ZM96.25 63.7023C89.5341 65.6097 64.6756 72.5 56.0938 72.5C47.0473 72.5 39.6875 65.1402 39.6875 56.0938C39.6875 47.0473 47.0473 39.6875 56.0938 39.6875C64.6734 39.6875 89.5337 46.578 96.25 48.4852V63.7023ZM100.938 48.4081L110.312 45.2831V66.9045L100.938 63.7795V48.4081Z" fill="white"/>
<path d="M65.4688 67.8125C71.9305 67.8125 77.1875 62.5555 77.1875 56.0938C77.1875 49.632 71.9305 44.375 65.4688 44.375C59.007 44.375 53.75 49.632 53.75 56.0938C53.75 62.5555 59.007 67.8125 65.4688 67.8125ZM65.4688 49.0625C68.5242 49.0625 71.1294 51.0222 72.0969 53.75H58.8406C59.8081 51.0222 62.4133 49.0625 65.4688 49.0625ZM72.0969 58.4375C71.1294 61.1653 68.5242 63.125 65.4688 63.125C62.4133 63.125 59.8081 61.1653 58.8406 58.4375H72.0969Z" fill="white"/>
<path d="M44.375 53.75H49.0625V58.4375H44.375V53.75Z" fill="white"/>
</svg>
