<svg width="150" height="150" viewBox="0 0 150 150" fill="none" xmlns="http://www.w3.org/2000/svg">
<g clip-path="url(#clip0)">
<path d="M83.969 55.6299C83.969 50.6847 79.9455 46.6617 74.9999 46.6617C70.0543 46.6617 66.0308 50.6847 66.0308 55.6299C66.0308 60.575 70.0543 64.5981 74.9999 64.5981C79.9455 64.5981 83.969 60.575 83.969 55.6299ZM68.3759 55.6299C68.3759 51.9778 71.3475 49.0067 75.0001 49.0067C78.6526 49.0067 81.6242 51.9778 81.6242 55.6299C81.6242 59.282 78.6526 62.2531 75.0001 62.2531C71.3475 62.2531 68.3759 59.282 68.3759 55.6299Z" fill="white"/>
<path d="M78.1013 54.1477C79.1659 53.0832 77.5094 51.4233 76.4434 52.4895L74.0926 54.8399C73.0431 55.8893 74.677 57.5719 75.7505 56.4982L78.1013 54.1477Z" fill="white"/>
<path d="M100.142 42.8593C100.142 40.5107 98.5718 38.4104 96.3238 37.7519C92.8162 36.7242 85.3819 35 75 35C72.5015 35 69.9956 35.1064 67.552 35.3162C66.052 35.4451 66.2507 37.7819 67.7526 37.6526C70.1298 37.4485 72.5681 37.345 75 37.345C85.0891 37.345 92.2775 39.0098 95.6644 40.0023C96.9199 40.3702 97.7968 41.545 97.7968 42.8595V81.9971H52.2032V42.8932C52.2032 41.5705 53.0899 40.3925 54.3595 40.0289C56.1275 39.5225 58.0429 39.0742 60.0525 38.6962C61.5321 38.4179 61.1007 36.1123 59.619 36.3917C57.5382 36.783 55.5514 37.2484 53.714 37.7747C51.4439 38.4249 49.8584 40.5298 49.8584 42.8934V94.1278C49.8584 96.4764 51.4284 98.5767 53.6763 99.2352C54.5623 99.4949 55.6996 99.7988 57.0708 100.108V102.966C57.0708 104.66 58.1626 106.126 59.7879 106.614C60.9521 106.963 62.7283 107.423 65.0502 107.814V113.87C65.0502 115.376 67.3952 115.378 67.3952 113.87V108.154C68.0965 108.241 68.8345 108.319 69.6078 108.386V113.87C69.6078 115.376 71.9528 115.378 71.9528 113.87V108.541C72.9241 108.586 73.9394 108.613 75.0002 108.613C76.0241 108.613 77.0405 108.588 78.0476 108.538V113.87C78.0476 115.376 80.3926 115.378 80.3926 113.87V108.377C81.1364 108.312 81.8741 108.232 82.6051 108.139V113.87C82.6051 115.376 84.9501 115.378 84.9501 113.87V107.789C85.5209 107.691 86.0875 107.586 86.6482 107.471C88.1231 107.168 87.6538 104.871 86.1767 105.174C77.8612 106.88 68.6265 106.816 60.4615 104.368C59.836 104.18 59.4158 103.617 59.4158 102.966V100.593C63.3437 101.334 68.6129 101.987 75.0002 101.987C81.2882 101.987 86.5988 101.312 90.5845 100.553V102.944C90.5845 104.45 92.9295 104.452 92.9295 102.944V100.066C94.272 99.7631 95.399 99.4666 96.2863 99.2125C98.5564 98.5623 100.142 96.4575 100.142 94.0939V42.8593H100.142ZM95.6405 96.9581C92.141 97.9605 84.806 99.642 75 99.642C64.9109 99.642 57.7225 97.9772 54.3356 96.9846C53.0801 96.6168 52.2032 95.4419 52.2032 94.1275V84.3418H97.7968V94.0939C97.7968 95.4166 96.9101 96.5944 95.6405 96.9581Z" fill="white"/>
<path d="M66.8509 89.9885C65.3419 89.9885 65.3394 92.3335 66.8509 92.3335C68.3596 92.3335 68.3621 89.9885 66.8509 89.9885Z" fill="white"/>
<path d="M74.9999 89.9885C73.491 89.9885 73.4885 92.3335 74.9999 92.3335C76.5088 92.3335 76.5113 89.9885 74.9999 89.9885Z" fill="white"/>
<path d="M83.1491 89.9885C81.6402 89.9885 81.6377 92.3335 83.1491 92.3335C84.658 92.3335 84.6605 89.9885 83.1491 89.9885Z" fill="white"/>
</g>
<defs>
<clipPath id="clip0">
<rect width="80" height="80" fill="white" transform="translate(35 35)"/>
</clipPath>
</defs>
</svg>
