<svg width="150" height="150" viewBox="0 0 150 150" fill="none" xmlns="http://www.w3.org/2000/svg">
<path d="M75.7826 46.5264C75.7826 45.6715 75.154 44.9776 74.3761 44.9776C66.2564 44.9776 59.6501 52.2517 59.6501 61.1919C59.6501 62.0468 60.2787 62.7407 61.0567 62.7407C61.8345 62.7407 62.4632 62.0468 62.4632 61.1919C62.4632 53.9599 67.808 48.0749 74.3762 48.0749C75.154 48.0749 75.7826 47.3828 75.7826 46.5264Z" fill="#05479D"/>
<path d="M53.7401 61.1919C53.7401 66.5069 55.3 71.5322 58.252 75.7245C58.266 75.7447 58.2816 75.7647 58.297 75.7849C64.4533 85.1945 62.923 89.6701 62.923 89.6778C62.5939 90.452 62.8977 91.3736 63.6009 91.7375C63.7937 91.8365 63.9961 91.8845 64.1958 91.883C64.7246 91.883 65.231 91.5532 65.47 90.991C65.7245 90.3964 67.7358 84.8536 60.5051 73.8615C60.4727 73.8134 60.4403 73.767 60.4038 73.7237C57.8849 70.0998 56.5543 65.7699 56.5543 61.1904C56.5543 49.8109 64.9637 40.5532 75.2971 40.5532C85.6305 40.5532 94.0403 49.8109 94.0403 61.1904C94.0403 65.7821 92.7014 70.1292 90.1429 73.7932C82.908 84.7932 85.0008 90.3994 85.2624 91.0034C85.5929 91.7607 86.4045 92.0705 87.0993 91.7281C87.7942 91.3858 88.1091 90.4753 87.8152 89.701C87.7982 89.656 86.1864 85.0906 92.3975 75.6455C95.3117 71.4702 96.8532 66.4727 96.8532 61.1919C96.8532 48.1043 87.1836 37.4573 75.2973 37.4573C63.4109 37.4573 53.7401 48.106 53.7401 61.1919Z" fill="#05479D"/>
<path d="M87.8503 97.8453V96.529C87.8503 94.4306 86.2989 92.724 84.3945 92.724H65.4408C63.535 92.724 61.985 94.4306 61.985 96.529V97.8453C61.985 99.9422 63.535 101.65 65.4408 101.65H84.3961C86.3005 101.65 87.8503 99.9437 87.8503 97.8453ZM64.7979 97.8453V96.529C64.7979 96.1388 65.0862 95.8212 65.4408 95.8212H84.3961C84.7504 95.8212 85.0389 96.1386 85.0389 96.529V97.8453C85.0389 98.2355 84.7506 98.5531 84.3961 98.5531H65.4408C65.0862 98.5531 64.7979 98.2357 64.7979 97.8453Z" fill="#05479D"/>
<path d="M67.7178 104.004C66.9401 104.004 66.3113 104.698 66.3113 105.553V109.643C66.3113 110.25 66.6333 110.8 67.134 111.052L74.7136 114.861C74.8993 114.954 75.0976 115 75.2973 115C75.5027 115 75.708 114.95 75.8979 114.851L83.4986 110.902C83.9908 110.647 84.3045 110.102 84.3045 109.502V105.555C84.3045 104.7 83.6759 104.006 82.898 104.006C82.12 104.006 81.4914 104.7 81.4914 105.555V108.522L75.2874 111.746L69.1242 108.649V105.555C69.1242 104.697 68.4956 104.004 67.7178 104.004Z" fill="#05479D"/>
<path d="M108.064 89.1761C108.526 88.4885 108.392 87.519 107.768 87.0111L98.2261 79.2648C97.6002 78.7568 96.7211 78.9024 96.2598 79.5915C95.7985 80.2791 95.932 81.2486 96.5565 81.7565L106.098 89.5029C106.35 89.7073 106.642 89.8048 106.932 89.8048C107.363 89.8064 107.789 89.588 108.064 89.1761Z" fill="#05479D"/>
<path d="M52.1577 45.7163C52.4095 45.9207 52.7021 46.0183 52.9917 46.0183C53.4234 46.0183 53.8482 45.7999 54.1254 45.388C54.5867 44.7004 54.4531 43.7309 53.8287 43.223L44.0718 35.3031C43.4473 34.7937 42.5668 34.9423 42.1055 35.6298C41.6442 36.3189 41.7764 37.2885 42.4022 37.7964L52.1577 45.7163Z" fill="#05479D"/>
<path d="M52.6008 78.7319L42.4038 87.0109C41.7793 87.5188 41.6458 88.4883 42.1071 89.1759C42.3827 89.5878 42.8089 89.8062 43.2408 89.8062C43.5304 89.8062 43.823 89.7086 44.0748 89.5042L54.2718 81.2252C54.8963 80.7173 55.0299 79.7477 54.5686 79.0601C54.1043 78.371 53.2253 78.2255 52.6008 78.7319Z" fill="#05479D"/>
<path d="M96.9728 42.712C96.3483 43.2199 96.2148 44.1895 96.6761 44.8771C96.9517 45.289 97.3779 45.5073 97.8098 45.5073C98.0994 45.5073 98.392 45.4082 98.6438 45.2053L107.77 37.7966C108.395 37.2887 108.528 36.3191 108.067 35.6316C107.606 34.944 106.727 34.7954 106.101 35.3048L96.9728 42.712Z" fill="#05479D"/>
<path d="M113.593 60.8559H102.835C102.057 60.8559 101.429 61.5497 101.429 62.4046C101.429 63.2595 102.057 63.9533 102.835 63.9533H113.593C114.371 63.9533 115 63.2595 115 62.4046C115 61.5497 114.371 60.8559 113.593 60.8559Z" fill="#05479D"/>
<path d="M48.9144 62.4046C48.9144 61.5497 48.2858 60.8559 47.5079 60.8559H36.4066C35.6288 60.8559 35 61.5497 35 62.4046C35 63.2595 35.6286 63.9533 36.4066 63.9533H47.508C48.2843 63.9531 48.9144 63.2595 48.9144 62.4046Z" fill="#05479D"/>
</svg>
