<svg width="150" height="150" viewBox="0 0 150 150" fill="none" xmlns="http://www.w3.org/2000/svg">
<path d="M117.971 45H48.7768C47.9661 45 47.3088 45.6499 47.3088 46.4519C47.3088 47.2539 47.9661 47.9038 48.7768 47.9038H117.971C120.228 47.9038 122.064 49.7197 122.064 51.9517V82.8658C122.064 85.0979 120.228 86.9137 117.971 86.9137H114.456V77.4537C114.456 76.6517 113.799 76.0018 112.988 76.0018H37.0115C36.2008 76.0018 35.5435 76.6517 35.5435 77.4537V86.9137H32.0286C29.7719 86.9137 27.9359 85.0979 27.9359 82.8658V51.9517C27.9359 49.7197 29.7719 47.9038 32.0286 47.9038H42.9049C43.7156 47.9038 44.3729 47.2539 44.3729 46.4519C44.3729 45.6499 43.7156 45 42.9049 45H32.0286C28.153 45 25 48.1185 25 51.9517V82.8658C25 86.6991 28.153 89.8175 32.0286 89.8175H47.3094C48.1201 89.8175 48.7774 89.1677 48.7774 88.3656C48.7774 87.5638 48.1201 86.9137 47.3094 86.9137H38.4795V84.3615H96.8187C97.6294 84.3615 98.2867 83.7116 98.2867 82.9096C98.2867 82.1076 97.6294 81.4577 96.8187 81.4577H38.4795V78.9054H111.52V81.4577H102.691C101.88 81.4577 101.223 82.1076 101.223 82.9096C101.223 83.7116 101.88 84.3615 102.691 84.3615H111.52V86.9137H53.1811C52.3704 86.9137 51.7131 87.5638 51.7131 88.3656C51.7131 89.1677 52.3704 89.8175 53.1811 89.8175H117.971C121.847 89.8175 125 86.6991 125 82.8658V51.9517C125 48.1187 121.847 45 117.971 45Z" fill="#05479D"/>
<path d="M112.988 56.8051C113.799 56.8051 114.456 56.1553 114.456 55.3532C114.456 54.5512 113.799 53.9013 112.988 53.9013H108.647C107.836 53.9013 107.179 54.5512 107.179 55.3532C107.179 56.1553 107.836 56.8051 108.647 56.8051H112.988Z" fill="#05479D"/>
<path d="M101.949 56.8051C102.759 56.8051 103.417 56.1553 103.417 55.3532C103.417 54.5512 102.759 53.9013 101.949 53.9013H74.1638C73.3531 53.9013 72.6959 54.5512 72.6959 55.3532C72.6959 56.1553 73.3531 56.8051 74.1638 56.8051H101.949Z" fill="#05479D"/>
<path d="M52.6139 93.7023C51.8032 93.7023 51.1459 94.3521 51.1459 95.1542C51.1459 95.1973 51.0987 99.5015 47.0264 102.364C46.3656 102.829 46.2106 103.735 46.6803 104.389C46.9667 104.787 47.4188 105 47.8782 105C48.1724 105 48.4695 104.912 48.7275 104.731C54.0212 101.01 54.082 95.3913 54.082 95.154C54.0818 94.3521 53.4246 93.7023 52.6139 93.7023Z" fill="#05479D"/>
<path d="M63.1247 93.7023C62.314 93.7023 61.6568 94.3521 61.6568 95.1542V103.548C61.6568 104.35 62.314 105 63.1247 105C63.9354 105 64.5927 104.35 64.5927 103.548V95.1542C64.5927 94.3521 63.9354 93.7023 63.1247 93.7023Z" fill="#05479D"/>
<path d="M75.4128 93.7023C74.6021 93.7023 73.9448 94.3521 73.9448 95.1542V103.548C73.9448 104.35 74.6021 105 75.4128 105C76.2235 105 76.8808 104.35 76.8808 103.548V95.1542C76.8808 94.3521 76.2235 93.7023 75.4128 93.7023Z" fill="#05479D"/>
<path d="M102.974 102.364C98.9561 99.5401 98.8563 95.3408 98.8541 95.1476C98.8506 94.3486 98.1947 93.7023 97.3861 93.7023C96.5754 93.7023 95.9182 94.3521 95.9182 95.1542C95.9182 95.3915 95.979 101.01 101.273 104.731C101.531 104.913 101.828 105 102.122 105C102.581 105 103.034 104.787 103.32 104.389C103.789 103.735 103.634 102.829 102.974 102.364Z" fill="#05479D"/>
<path d="M86.8751 93.7023C86.0644 93.7023 85.4071 94.3521 85.4071 95.1542V103.548C85.4071 104.35 86.0644 105 86.8751 105C87.6858 105 88.3431 104.35 88.3431 103.548V95.1542C88.3431 94.3521 87.6858 93.7023 86.8751 93.7023Z" fill="#05479D"/>
</svg>
