<svg width="150" height="150" viewBox="0 0 150 150" fill="none" xmlns="http://www.w3.org/2000/svg">
<path d="M101.721 35H48.2972C42.7747 35 38.2813 39.4934 38.2813 45.0158V104.984C38.2813 110.507 42.7747 115 48.2972 115H101.721C107.244 115 111.736 110.507 111.736 104.984V45.0158C111.736 39.4934 107.244 35 101.721 35ZM48.2972 37.3437H101.721C105.951 37.3437 109.393 40.7855 109.393 45.0158V52.2656H40.6251V45.0158C40.6251 40.7855 44.0668 37.3437 48.2972 37.3437V37.3437ZM71.6107 99.7661C70.9918 99.5775 70.3369 99.9266 70.1483 100.546C69.6417 102.21 68.866 103.686 67.8906 104.844H57.9602C56.1194 102.655 55.0324 99.3639 55.0324 95.9233C55.0324 89.5739 58.573 84.4079 62.9254 84.4079C67.2772 84.4079 70.8185 89.5739 70.8185 95.9233C70.8185 96.5709 71.3428 97.0952 71.9904 97.0952C72.6373 97.0952 73.1622 96.5709 73.1622 95.9233C73.1622 89.5049 70.0812 85.9899 69.9756 85.8538C71.142 84.9065 72.4469 84.4079 73.7818 84.4079C78.1335 84.4079 81.6742 89.5739 81.6742 95.9233C81.6742 99.3639 80.5872 102.655 78.7463 104.844H70.7715C71.4429 103.76 71.9916 102.541 72.3908 101.228C72.5787 100.609 72.2296 99.9541 71.6107 99.7661V99.7661ZM84.0179 95.9233C84.0179 89.6972 80.9375 85.9899 80.8319 85.8538C81.9983 84.9065 83.3032 84.4079 84.6374 84.4079C88.9899 84.4079 92.5305 89.5739 92.5305 95.9233C92.5305 99.3639 91.4435 102.655 89.6026 104.844H81.6278C83.1628 102.374 84.0179 99.2443 84.0179 95.9233V95.9233ZM94.8742 95.9233C94.8742 92.2924 93.8537 88.864 92.0007 86.2706C90.0628 83.5583 87.4475 82.0641 84.6374 82.0641C82.6971 82.0641 80.8331 82.7855 79.2126 84.1533C77.6056 82.7935 75.7416 82.0641 73.7811 82.0641C71.8408 82.0641 69.9768 82.7855 68.3563 84.1533C66.7493 82.7935 64.8853 82.0641 62.9248 82.0641C60.1148 82.0641 57.5 83.5583 55.5616 86.2706C53.7085 88.864 52.688 92.2924 52.688 95.9233C52.688 99.2443 53.5437 102.374 55.0782 104.844H53.2001C50.5738 104.844 48.4376 102.707 48.4376 100.081V77.7215H101.58V100.081C101.58 102.707 99.4439 104.844 96.8176 104.844H92.4841C94.0185 102.374 94.8742 99.2443 94.8742 95.9233V95.9233ZM101.58 75.3777H48.4376V71.4489H101.58V75.3777ZM60.7001 61.1035C60.6299 60.7824 60.5359 59.7912 61.7572 59.7912H71.5521C72.8906 59.7912 72.6795 60.7824 72.6093 61.1035L70.8661 69.1052H62.4427L60.7001 61.1035ZM89.3182 61.1035L87.5751 69.1052H81.6199L83.2538 61.6021C83.3868 60.9905 83.3496 60.3674 83.1573 59.7912H88.2605C89.4098 59.7912 89.3878 60.7824 89.3182 61.1035ZM80.9637 61.1035L79.2206 69.1052H73.2654L74.8993 61.6027C75.033 60.9905 74.9951 60.3674 74.8029 59.7912H79.9066C81.1639 59.7912 81.0339 60.7824 80.9637 61.1035ZM101.58 69.1052H89.9737L91.6083 61.6027C91.8298 60.5841 91.582 59.5355 90.9283 58.7237C90.2746 57.9126 89.3024 57.4475 88.2605 57.4475H61.7572C60.7154 57.4475 59.7431 57.9126 59.0894 58.7237C58.4357 59.5355 58.1885 60.5841 58.4101 61.6027L60.044 69.1052H48.4376V54.6093H101.58V69.1052ZM101.721 112.656H48.2972C44.0668 112.656 40.6251 109.214 40.6251 104.984V54.6093H46.0938V100.081C46.0938 103.999 49.2817 107.187 53.2001 107.187H96.8176C100.736 107.187 103.924 103.999 103.924 100.081V54.6093H109.393V104.984C109.393 109.214 105.951 112.656 101.721 112.656V112.656Z" fill="white"/>
<path d="M52.9285 50.7715C56.2189 50.7715 58.8953 48.0951 58.8953 44.8047C58.8953 41.5143 56.2189 38.8379 52.9285 38.8379C49.6387 38.8379 46.9617 41.5143 46.9617 44.8047C46.9617 48.0951 49.6387 50.7715 52.9285 50.7715ZM52.9285 41.1816C54.9268 41.1816 56.5516 42.807 56.5516 44.8047C56.5516 46.8024 54.9268 48.4277 52.9285 48.4277C50.9308 48.4277 49.3055 46.8024 49.3055 44.8047C49.3055 42.807 50.9308 41.1816 52.9285 41.1816Z" fill="white"/>
<path d="M64.1663 48.4649C66.1847 48.4649 67.8266 46.8231 67.8266 44.8047C67.8266 42.7868 66.1847 41.1444 64.1663 41.1444C62.1479 41.1444 60.506 42.7868 60.506 44.8047C60.506 46.8231 62.1479 48.4649 64.1663 48.4649ZM64.1663 43.4881C64.892 43.4881 65.4828 44.079 65.4828 44.8047C65.4828 45.531 64.892 46.1212 64.1663 46.1212C63.4406 46.1212 62.8498 45.531 62.8498 44.8047C62.8498 44.079 63.4406 43.4881 64.1663 43.4881Z" fill="white"/>
<path d="M73.0841 48.4649C75.1026 48.4649 76.7444 46.8231 76.7444 44.8047C76.7444 42.7868 75.1026 41.1444 73.0841 41.1444C71.0663 41.1444 69.4245 42.7868 69.4245 44.8047C69.4245 46.8231 71.0663 48.4649 73.0841 48.4649ZM73.0841 43.4881C73.8104 43.4881 74.4007 44.079 74.4007 44.8047C74.4007 45.531 73.8104 46.1212 73.0841 46.1212C72.3584 46.1212 71.7682 45.531 71.7682 44.8047C71.7682 44.079 72.3584 43.4881 73.0841 43.4881Z" fill="white"/>
<path d="M90.44 48.1689H95.4998C96.1468 48.1689 96.6717 47.6446 96.6717 46.9971C96.6717 46.3501 96.1468 45.8252 95.4998 45.8252H90.44C89.8773 45.8252 89.4195 45.3674 89.4195 44.8047C89.4195 44.2419 89.8773 43.7842 90.44 43.7842H100.56C101.122 43.7842 101.58 44.2419 101.58 44.8047C101.58 45.3674 101.122 45.8252 100.56 45.8252C99.9127 45.8252 99.3878 46.3501 99.3878 46.9971C99.3878 47.6446 99.9127 48.1689 100.56 48.1689C102.415 48.1689 103.924 46.6601 103.924 44.8047C103.924 42.9498 102.415 41.4404 100.56 41.4404H90.44C88.5852 41.4404 87.0758 42.9498 87.0758 44.8047C87.0758 46.6601 88.5852 48.1689 90.44 48.1689Z" fill="white"/>
</svg>
