<svg width="150" height="150" viewBox="0 0 150 150" fill="none" xmlns="http://www.w3.org/2000/svg">
<path d="M75 106.25C78.5754 106.25 81.9366 105.32 84.8578 103.692C84.9841 103.656 85.108 103.605 85.2264 103.536C85.3381 103.47 85.437 103.391 85.5261 103.304C89.3848 100.957 92.4017 97.3602 94.0149 93.0804C95.0348 90.8801 95.3125 88.3386 95.3125 85.9375C95.3125 84.7156 95.1923 83.4949 94.9677 82.2937C94.7528 81.1444 94.5093 79.8615 94.0149 78.7946C91.1176 71.1078 83.6877 65.625 75 65.625C63.7994 65.625 54.6875 74.7369 54.6875 85.9375C54.6875 97.1381 63.7994 106.25 75 106.25V106.25ZM57.8845 87.5H68.9478C69.6436 90.1929 72.0929 92.1875 75 92.1875C75.5554 92.1875 76.0944 92.1136 76.6077 91.9769L82.2308 101.527C80.0317 102.552 77.5818 103.125 75 103.125C66.0498 103.125 58.6761 96.2476 57.8845 87.5V87.5ZM76.3684 83.1403C77.3962 83.6572 78.125 84.7284 78.125 85.9375C78.125 87.6605 76.723 89.0625 75 89.0625C73.277 89.0625 71.875 87.6605 71.875 85.9375C71.875 84.2145 73.277 82.8125 75 82.8125C75.4858 82.8125 75.9515 82.9309 76.3684 83.1403V83.1403ZM91.5735 81.2256C91.7224 81.7108 91.9153 82.8802 91.9403 83.028C92.1045 83.988 92.1875 84.9634 92.1875 85.9375C92.1875 87.6019 91.9458 89.2651 91.4679 90.8594H88.2812V81.0156H91.4679C91.4978 81.0156 91.5338 81.0962 91.5735 81.2256ZM90.1837 77.8906H88.2812C86.5582 77.8906 85.1562 79.2926 85.1562 81.0156V90.8594C85.1562 92.5824 86.5582 93.9844 88.2812 93.9844H90.1837C88.9191 96.3605 87.1143 98.407 84.9329 99.9567L79.3286 90.4388C80.5115 89.3011 81.25 87.7045 81.25 85.9375C81.25 84.184 80.5231 82.5983 79.3561 81.4618L84.9628 71.9397C87.1307 73.4869 88.9252 75.5255 90.1837 77.8906V77.8906ZM75 68.75C77.5946 68.75 80.0568 69.3292 82.2644 70.3632L76.6443 79.9084C76.12 79.7656 75.5695 79.6875 75 79.6875C72.0929 79.6875 69.6436 81.6821 68.9478 84.375H57.8845C58.6761 75.6274 66.0498 68.75 75 68.75V68.75Z" fill="#05479D"/>
<path d="M107.031 35H42.9688C42.1057 35 41.4062 35.6995 41.4062 36.5625V113.438C41.4062 114.301 42.1057 115 42.9688 115H107.031C107.894 115 108.594 114.301 108.594 113.438V36.5625C108.594 35.6995 107.894 35 107.031 35ZM44.5312 38.125H105.469V56.875H44.5312V38.125ZM44.5312 111.875V105.625H50.7812V111.875H44.5312ZM105.469 111.875H53.9062V104.062C53.9062 103.199 53.2068 102.5 52.3438 102.5H44.5312V60H105.469V111.875Z" fill="#05479D"/>
<path d="M53.9062 41.25C50.4602 41.25 47.6562 44.054 47.6562 47.5C47.6562 50.946 50.4602 53.75 53.9062 53.75C57.3523 53.75 60.1562 50.946 60.1562 47.5C60.1562 44.054 57.3523 41.25 53.9062 41.25ZM53.9062 50.625C52.1832 50.625 50.7812 49.223 50.7812 47.5C50.7812 45.777 52.1832 44.375 53.9062 44.375C55.6293 44.375 57.0312 45.777 57.0312 47.5C57.0312 49.223 55.6293 50.625 53.9062 50.625Z" fill="#05479D"/>
<path d="M75.8173 41.25H69.5673C68.7048 41.25 68.0048 41.9495 68.0048 42.8125C68.0048 43.6755 68.7048 44.375 69.5673 44.375H75.8173C76.6803 44.375 77.3798 43.6755 77.3798 42.8125C77.3798 41.9495 76.6803 41.25 75.8173 41.25Z" fill="#05479D"/>
<path d="M85.1923 41.25H82.0673C81.2048 41.25 80.5048 41.9495 80.5048 42.8125C80.5048 43.6755 81.2048 44.375 82.0673 44.375H85.1923C86.0553 44.375 86.7548 43.6755 86.7548 42.8125C86.7548 41.9495 86.0553 41.25 85.1923 41.25Z" fill="#05479D"/>
<path d="M100.817 41.25C99.9561 41.25 99.2548 41.9513 99.2548 42.8125C99.2548 43.6737 99.9561 44.375 100.817 44.375C101.68 44.375 102.38 43.6737 102.38 42.8125C102.38 41.9513 101.68 41.25 100.817 41.25Z" fill="#05479D"/>
<path d="M94.5673 41.25H91.4423C90.5811 41.25 89.8798 41.9513 89.8798 42.8125C89.8798 43.6737 90.5811 44.375 91.4423 44.375H94.5673C95.4279 44.375 96.1298 43.6737 96.1298 42.8125C96.1298 41.9513 95.4279 41.25 94.5673 41.25Z" fill="#05479D"/>
</svg>
