<svg width="150" height="150" viewBox="0 0 150 150" fill="none" xmlns="http://www.w3.org/2000/svg">
<path d="M105 64.7234C105 48.3338 91.542 35 75 35C58.458 35 45 48.3338 45 64.7234C45 78.2509 54.1689 89.6956 66.6722 93.2805L64.7239 104.829C62.0861 105.194 60.0488 107.442 60.0488 110.155V113.655C60.0488 114.398 60.6566 115 61.4066 115H88.5934C89.3435 115 89.9512 114.398 89.9512 113.655V110.155C89.9512 107.442 87.9138 105.193 85.2756 104.829L83.3272 93.2804C95.8309 89.6958 105 78.2511 105 64.7234ZM75.905 91.7395V87.1322C79.1057 87.0068 82.1378 86.221 84.8654 84.9071C85.4458 85.0465 86.0458 85.1281 86.6595 85.1478C86.7567 85.1509 86.8534 85.1525 86.9501 85.1525C89.2649 85.1525 91.4309 84.2644 93.0764 82.6341C93.4299 82.2838 93.4299 81.7159 93.0764 81.3657L91.6253 79.9281C95.1636 76.1331 97.3978 71.129 97.6176 65.6199H102.268C101.798 79.8142 90.2318 91.2743 75.905 91.7395V91.7395ZM67.7511 64.7234C67.7511 62.8052 68.5049 61.0016 69.8741 59.6452C71.2434 58.2886 73.0634 57.5417 74.9998 57.5417C76.9359 57.5417 78.7563 58.2888 80.1255 59.6452C82.9516 62.4454 82.9516 67.0014 80.1255 69.8016C78.7563 71.158 76.9361 71.9051 74.9998 71.9051C73.0636 71.9051 71.2434 71.158 69.8741 69.8016C68.5049 68.4452 67.7511 66.6416 67.7511 64.7234V64.7234ZM76.9618 78.3299C76.6135 78.379 76.2611 78.4145 75.905 78.4373V77.1381L76.9618 78.3299ZM75.2593 73.6926C77.2784 73.6364 79.1857 72.9313 80.7334 71.6732L84.1423 75.0506C82.6648 76.3361 80.9116 77.3162 78.9815 77.8902L75.2593 73.6926ZM82.013 70.4043C82.8241 69.4228 83.3917 68.3091 83.7192 67.1424L85.4686 65.6197H88.842C88.6383 68.7363 87.3824 71.5717 85.4226 73.7824L82.013 70.4043ZM87.5294 63.826L88.7333 62.7781C88.7829 63.1234 88.819 63.473 88.842 63.826H87.5294ZM84.0481 64.4685C83.9933 62.5367 83.3164 60.6196 82.013 59.0425L85.4226 55.6644C86.7201 57.1281 87.7095 58.8649 88.2891 60.777L84.0481 64.4685V64.4685ZM80.7336 57.7736C79.7567 56.9794 78.6359 56.407 77.4347 56.0769L75.905 54.3514V51.0091C79.0501 51.2109 81.9115 52.4549 84.1426 54.3962L80.7336 57.7736V57.7736ZM74.0946 52.3091L73.0377 51.1168C73.386 51.0676 73.7385 51.0321 74.0946 51.0091V52.3091ZM74.7391 55.7543C72.7198 55.8104 70.8127 56.5159 69.2651 57.7742L65.8565 54.3971C67.3341 53.1112 69.0875 52.1308 71.018 51.5566L74.7391 55.7543ZM67.9852 59.0425C67.1839 60.0102 66.6061 61.1202 66.273 62.3098L64.531 63.8262H61.1582C61.3621 60.7105 62.6174 57.8759 64.5767 55.6655L67.9852 59.0425ZM62.4702 65.6197L61.2667 66.6674C61.2171 66.3222 61.1812 65.9727 61.158 65.6197H62.4702ZM65.947 64.981C66.0036 66.9815 66.7155 68.871 67.9853 70.4045L64.5768 73.7815C63.2793 72.3177 62.2901 70.5808 61.7106 68.6685L65.947 64.981V64.981ZM69.2653 71.6728C70.242 72.4669 71.3625 73.0393 72.5632 73.3695L74.0944 75.0965V78.4375C70.9492 78.2357 68.0876 76.9914 65.8566 75.05L69.2653 71.6728ZM75.905 80.2371C76.7416 80.1898 77.5607 80.0768 78.3574 79.904L80.419 82.2291C81.0369 82.9259 81.7473 83.5067 82.5254 83.9634C80.4572 84.7602 78.23 85.2382 75.905 85.3372V80.2371V80.2371ZM81.779 81.0452L80.2814 79.3562C82.195 78.6762 83.9373 77.6377 85.4261 76.3225L89.0648 79.9275C87.7488 81.1234 86.2777 82.1537 84.6852 82.986C83.5762 82.6074 82.5799 81.9482 81.779 81.0452ZM90.3452 81.1961L91.1151 81.9589C90.1018 82.7324 88.9079 83.2011 87.6339 83.325C88.5925 82.6839 89.4982 81.9711 90.3452 81.1961ZM86.7064 75.0543C88.9917 72.5152 90.45 69.2309 90.6584 65.6197H95.8059C95.5885 70.6344 93.5567 75.1909 90.345 78.6594L86.7064 75.0543ZM90.6584 63.826C90.6104 62.9968 90.4965 62.1851 90.3218 61.3953L92.6676 59.3535C93.3711 58.741 93.9577 58.037 94.4188 57.2658C95.2233 59.3152 95.7058 61.5222 95.8059 63.826H90.6584ZM93.4323 55.1263C93.0499 56.2251 92.3844 57.2124 91.4727 58.0061L89.7687 59.4893C89.0822 57.5935 88.0338 55.8674 86.7066 54.3925L90.3452 50.7874C91.5522 52.0911 92.5921 53.5485 93.4323 55.1263V55.1263ZM91.6255 49.5189L92.3951 48.7564C93.1756 49.7602 93.6488 50.944 93.7741 52.2045C93.1271 51.2551 92.4076 50.3578 91.6255 49.5189ZM85.4264 53.1241C82.8638 50.8603 79.5492 49.4158 75.905 49.2093V44.1094C80.9661 44.325 85.5644 46.3378 89.065 49.5191L85.4264 53.1241ZM74.0946 49.2095C73.258 49.2569 72.439 49.3699 71.6422 49.5426L69.5816 47.2181C68.9635 46.5211 68.2529 45.9401 67.4746 45.4832C69.5427 44.6865 71.7698 44.2086 74.0944 44.1094V49.2095H74.0946ZM68.2218 48.4018L69.7186 50.0904C67.8047 50.7706 66.0619 51.8095 64.573 53.125L60.9343 49.52C62.2506 48.3236 63.7223 47.2929 65.3153 46.4603C66.4244 46.8391 67.4207 47.4985 68.2218 48.4018V48.4018ZM59.6539 48.2515L58.8834 47.4881C59.8974 46.7139 61.092 46.2454 62.3669 46.1213C61.4075 46.7627 60.5012 47.4759 59.6539 48.2515ZM63.2929 54.3934C61.0083 56.9324 59.5504 60.216 59.3418 63.826H54.1942C54.4119 58.8122 56.4431 54.2565 59.6541 50.7882L63.2929 54.3934V54.3934ZM59.3418 65.6197C59.3896 66.4488 59.5037 67.2606 59.6782 68.0502L57.3323 70.0922C56.6287 70.7048 56.0421 71.4088 55.581 72.1797C54.7767 70.1304 54.2942 67.9236 54.1942 65.6199H59.3418V65.6197ZM56.5672 74.3189C56.9497 73.2203 57.6152 72.2334 58.5271 71.4396L60.2311 69.9564C60.9174 71.8522 61.9657 73.5785 63.2931 75.0535L59.6543 78.6585C58.4473 77.3544 57.4074 75.8967 56.5672 74.3189V74.3189ZM58.3741 79.9268L57.6045 80.6891C56.8239 79.685 56.3505 78.501 56.225 77.2402C56.8722 78.1901 57.5917 79.0877 58.3741 79.9268ZM64.5732 76.3216C67.1359 78.5856 70.4506 80.0303 74.0948 80.2369V85.337C69.0337 85.1214 64.4351 83.1085 60.9345 79.9268L64.5732 76.3216V76.3216ZM102.268 63.8258H97.6176C97.4911 60.6543 96.6978 57.65 95.3713 54.9474C95.5119 54.3726 95.5943 53.7783 95.614 53.1706C95.6924 50.7695 94.791 48.5116 93.0764 46.8127C92.9065 46.6445 92.6764 46.5501 92.4364 46.5501C92.1963 46.5501 91.966 46.6447 91.7964 46.8127L90.3455 48.2502C86.5154 44.7451 81.465 42.5318 75.9052 42.3141V37.7069C90.2316 38.172 101.798 49.6317 102.268 63.8258V63.8258ZM74.0948 37.7069V42.3143C70.8945 42.4396 67.8626 43.2253 65.1354 44.5392C64.5548 44.3996 63.9544 44.318 63.3407 44.2983C60.9154 44.219 58.6372 45.1137 56.9222 46.8129C56.7524 46.9812 56.657 47.2091 56.657 47.4472C56.657 47.6852 56.7522 47.9132 56.9222 48.0814L58.374 49.5198C54.8364 53.3144 52.6027 58.3178 52.3827 63.826H47.7325C48.2023 49.6317 59.7685 38.1722 74.0948 37.7069V37.7069ZM47.7325 65.6195H52.3827C52.5093 68.7907 53.3022 71.7948 54.6286 74.4972C54.4877 75.0723 54.4053 75.6669 54.3856 76.2748C54.3072 78.6755 55.2088 80.9335 56.9238 82.6325C57.1005 82.8075 57.3323 82.8951 57.5638 82.8951C57.7954 82.8951 58.0273 82.8075 58.2038 82.6325L59.6545 81.1952C63.4846 84.7004 68.535 86.9141 74.095 87.1318V91.7392C59.7682 91.2741 48.2017 79.814 47.7325 65.6195V65.6195ZM87.2358 110.154V112.309H62.7646V110.154C62.7646 108.672 63.9819 107.466 65.4779 107.466H84.5223C86.0184 107.466 87.2358 108.672 87.2358 110.154ZM82.5136 104.776H67.4862L69.3196 93.9096C71.1597 94.2604 73.0583 94.4465 75.0002 94.4465C76.9419 94.4465 78.8403 94.2604 80.6802 93.9098L82.5136 104.776V104.776Z" fill="white"/>
<path d="M71.0169 99.8431C71.0169 102.019 72.8036 103.789 74.9998 103.789C77.196 103.789 78.9827 102.019 78.9827 99.8431C78.9827 97.6671 77.196 95.8969 74.9998 95.8969C72.8036 95.8969 71.0169 97.6671 71.0169 99.8431ZM77.1723 99.8431C77.1723 101.03 76.1978 101.996 74.9998 101.996C73.8019 101.996 72.8273 101.03 72.8273 99.8431C72.8273 98.6561 73.8019 97.6906 74.9998 97.6906C76.1978 97.6906 77.1723 98.6561 77.1723 99.8431Z" fill="white"/>
</svg>
