<svg width="150" height="150" viewBox="0 0 150 150" fill="none" xmlns="http://www.w3.org/2000/svg">
<path d="M92 83.2595V31.4241C92 30.6376 91.4064 30 90.6742 30H58.3258C57.5936 30 57 30.6376 57 31.4241V83.2595C57 83.9814 57.5006 84.5765 58.149 84.6695V85.6849C57.5006 85.778 57 86.373 57 87.0949V117.437C57 118.223 57.5936 118.861 58.3258 118.861H59.5014C59.6243 119.511 60.1592 120 60.8005 120C61.4418 120 61.9767 119.511 62.0996 118.861H86.9003C87.0231 119.511 87.558 120 88.1993 120C88.8406 120 89.3755 119.511 89.4984 118.861H90.6741C91.4062 118.861 91.9998 118.223 91.9998 117.437V87.0947C91.9998 86.3728 91.4992 85.7778 90.8508 85.6847V84.6693C91.4994 84.5765 92 83.9814 92 83.2595V83.2595ZM89.3485 116.013H59.6515V100.348H59.7806C61.7075 100.348 63.2753 98.6641 63.2753 96.5943V88.5188H89.3485V116.013ZM61.5076 88.5188V96.5943C61.5076 97.6172 60.7328 98.4494 59.7806 98.4494H59.6515V88.5188H61.5076ZM60.8005 85.6707V84.6835H88.1995V85.6707H60.8005ZM61.5076 81.8354H59.6515V71.1076H59.7806C60.7328 71.1076 61.5076 71.9398 61.5076 72.9627V81.8354ZM89.3485 32.8481V81.8354H63.2753V72.9627C63.2753 70.8928 61.7075 69.2089 59.7806 69.2089H59.6515V32.8481H89.3485Z" fill="white"/>
<path d="M74.5 43.0063C76.1082 43.0063 77.4167 41.6009 77.4167 39.8734C77.4167 38.146 76.1082 36.7405 74.5 36.7405C72.8918 36.7405 71.5833 38.146 71.5833 39.8734C71.5833 41.6009 72.8918 43.0063 74.5 43.0063ZM74.5 38.6392C75.1335 38.6392 75.649 39.1929 75.649 39.8734C75.649 40.5539 75.1335 41.1076 74.5 41.1076C73.8665 41.1076 73.351 40.5539 73.351 39.8734C73.351 39.1929 73.8665 38.6392 74.5 38.6392Z" fill="white"/>
</svg>
