<svg width="150" height="150" viewBox="0 0 150 150" fill="none" xmlns="http://www.w3.org/2000/svg">
<path d="M112.651 47H37.3494C36.0519 47 35 48.0156 35 49.2684V91.0424C35 92.2952 36.0519 93.3108 37.3494 93.3108H66.7156V97.4631H60.3775C59.08 97.4631 58.0281 98.4788 58.0281 99.7316C58.0281 100.984 59.08 102 60.3775 102H89.6223C90.9198 102 91.9717 100.984 91.9717 99.7316C91.9717 98.4788 90.9198 97.4631 89.6223 97.4631H83.2844V93.3108H112.651C113.948 93.3108 115 92.2952 115 91.0424V49.2684C115 48.0156 113.948 47 112.651 47V47ZM78.5856 97.4633H71.4144V93.311H78.5856V97.4633ZM110.301 88.7741H39.6988V51.537H110.301V88.7741Z" fill="#05479D"/>
</svg>
