<svg width="150" height="150" viewBox="0 0 150 150" fill="none" xmlns="http://www.w3.org/2000/svg">
<path d="M72.6923 37H17.3077C16.0332 37 15 37.9838 15 39.1973V109.803C15 111.016 16.0332 112 17.3077 112H72.6923C73.9668 112 75 111.016 75 109.803V39.1973C75 37.9838 73.9668 37 72.6923 37ZM70.3846 107.605H19.6154V41.3945H70.3846V107.605ZM26.5385 103.211H45C46.2745 103.211 47.3077 102.227 47.3077 101.014V92.2246C47.3077 91.0111 46.2745 90.0273 45 90.0273H26.5385C25.264 90.0273 24.2308 91.0111 24.2308 92.2246V101.014C24.2308 102.227 25.264 103.211 26.5385 103.211ZM28.8462 94.4219H42.6923V98.8164H28.8462V94.4219ZM45 85.6328C56.4563 85.6328 65.7692 76.6347 65.7692 65.7109C65.7692 54.803 56.4714 45.7891 45 45.7891C33.5437 45.7891 24.2308 54.7872 24.2308 65.7109C24.2308 76.6189 33.5286 85.6328 45 85.6328ZM45 50.1836C53.9072 50.1836 61.1538 57.1492 61.1538 65.7109C61.1538 74.2727 53.9072 81.2383 45 81.2383C36.0928 81.2383 28.8462 74.2727 28.8462 65.7109C28.8462 57.1492 36.0928 50.1836 45 50.1836ZM45 76.8438C51.3712 76.8438 56.5385 71.7783 56.5385 65.7109C56.5385 59.6444 51.3722 54.5781 45 54.5781C38.6288 54.5781 33.4615 59.6436 33.4615 65.7109C33.4615 71.7774 38.6278 76.8438 45 76.8438ZM45 58.9727C48.7528 58.9727 51.9231 62.0583 51.9231 65.7109C51.9231 69.3635 48.7528 72.4492 45 72.4492C41.2472 72.4492 38.0769 69.3635 38.0769 65.7109C38.0769 62.0583 41.2472 58.9727 45 58.9727ZM54.2308 90.0273C52.9563 90.0273 51.9231 91.0111 51.9231 92.2246C51.9231 93.4381 52.9563 94.4219 54.2308 94.4219C55.5052 94.4219 56.5385 93.4381 56.5385 92.2246C56.5385 91.0111 55.5052 90.0273 54.2308 90.0273ZM63.4615 90.0273C62.1871 90.0273 61.1538 91.0111 61.1538 92.2246C61.1538 93.4381 62.1871 94.4219 63.4615 94.4219C64.736 94.4219 65.7692 93.4381 65.7692 92.2246C65.7692 91.0111 64.736 90.0273 63.4615 90.0273ZM54.2308 98.8164C52.9563 98.8164 51.9231 99.8002 51.9231 101.014C51.9231 102.227 52.9563 103.211 54.2308 103.211C55.5052 103.211 56.5385 102.227 56.5385 101.014C56.5385 99.8002 55.5052 98.8164 54.2308 98.8164ZM63.4615 98.8164C62.1871 98.8164 61.1538 99.8002 61.1538 101.014C61.1538 102.227 62.1871 103.211 63.4615 103.211C64.736 103.211 65.7692 102.227 65.7692 101.014C65.7692 99.8002 64.736 98.8164 63.4615 98.8164Z" fill="#05479D"/>
<path d="M127.692 37H72.3077C71.0332 37 70 37.9838 70 39.1973V109.803C70 111.016 71.0332 112 72.3077 112H127.692C128.967 112 130 111.016 130 109.803V39.1973C130 37.9838 128.967 37 127.692 37ZM125.385 107.605H74.6154V41.3945H125.385V107.605ZM81.5385 103.211H100C101.274 103.211 102.308 102.227 102.308 101.014V92.2246C102.308 91.0111 101.274 90.0273 100 90.0273H81.5385C80.264 90.0273 79.2308 91.0111 79.2308 92.2246V101.014C79.2308 102.227 80.264 103.211 81.5385 103.211ZM83.8462 94.4219H97.6923V98.8164H83.8462V94.4219ZM100 85.6328C111.456 85.6328 120.769 76.6347 120.769 65.7109C120.769 54.803 111.471 45.7891 100 45.7891C88.5437 45.7891 79.2308 54.7872 79.2308 65.7109C79.2308 76.6189 88.5286 85.6328 100 85.6328ZM100 50.1836C108.907 50.1836 116.154 57.1492 116.154 65.7109C116.154 74.2727 108.907 81.2383 100 81.2383C91.0928 81.2383 83.8462 74.2727 83.8462 65.7109C83.8462 57.1492 91.0928 50.1836 100 50.1836ZM100 76.8438C106.371 76.8438 111.538 71.7783 111.538 65.7109C111.538 59.6444 106.372 54.5781 100 54.5781C93.6288 54.5781 88.4615 59.6436 88.4615 65.7109C88.4615 71.7774 93.6278 76.8438 100 76.8438ZM100 58.9727C103.753 58.9727 106.923 62.0583 106.923 65.7109C106.923 69.3635 103.753 72.4492 100 72.4492C96.2472 72.4492 93.0769 69.3635 93.0769 65.7109C93.0769 62.0583 96.2472 58.9727 100 58.9727ZM109.231 90.0273C107.956 90.0273 106.923 91.0111 106.923 92.2246C106.923 93.4381 107.956 94.4219 109.231 94.4219C110.505 94.4219 111.538 93.4381 111.538 92.2246C111.538 91.0111 110.505 90.0273 109.231 90.0273ZM118.462 90.0273C117.187 90.0273 116.154 91.0111 116.154 92.2246C116.154 93.4381 117.187 94.4219 118.462 94.4219C119.736 94.4219 120.769 93.4381 120.769 92.2246C120.769 91.0111 119.736 90.0273 118.462 90.0273ZM109.231 98.8164C107.956 98.8164 106.923 99.8002 106.923 101.014C106.923 102.227 107.956 103.211 109.231 103.211C110.505 103.211 111.538 102.227 111.538 101.014C111.538 99.8002 110.505 98.8164 109.231 98.8164ZM118.462 98.8164C117.187 98.8164 116.154 99.8002 116.154 101.014C116.154 102.227 117.187 103.211 118.462 103.211C119.736 103.211 120.769 102.227 120.769 101.014C120.769 99.8002 119.736 98.8164 118.462 98.8164Z" fill="#05479D"/>
</svg>
