<svg width="150" height="150" viewBox="0 0 150 150" fill="none" xmlns="http://www.w3.org/2000/svg">
<path d="M35 35V115H115V35H35ZM110.312 109.487H39.6875V40.513H110.312V109.487Z" fill="white"/>
<path d="M67.6562 98.5223H72.3438V104.035H67.6562V98.5223Z" fill="white"/>
<path d="M77.6562 98.5223H82.3438V104.035H77.6562V98.5223Z" fill="white"/>
<path d="M62.5 93.438C72.5228 93.438 80.6772 83.8478 80.6772 72.0598C80.6772 60.2719 72.5228 50.6816 62.5 50.6816C52.4772 50.6816 44.323 60.2719 44.323 72.0598C44.323 83.8478 52.4772 93.438 62.5 93.438ZM62.5 56.1946C69.9383 56.1946 75.9897 63.3118 75.9897 72.0598C75.9897 80.8079 69.9381 87.925 62.5 87.925C55.0619 87.925 49.0105 80.8079 49.0105 72.0598C49.0105 63.3118 55.0617 56.1946 62.5 56.1946Z" fill="white"/>
<path d="M62.5 81.7995C67.0664 81.7995 70.7812 77.4302 70.7812 72.0598C70.7812 66.6894 67.0664 62.3201 62.5 62.3201C57.9336 62.3201 54.2188 66.6894 54.2188 72.0598C54.2188 77.4302 57.9336 81.7995 62.5 81.7995ZM62.5 67.8332C64.4817 67.8332 66.0938 69.7293 66.0938 72.0598C66.0938 74.3904 64.4817 76.2865 62.5 76.2865C60.5183 76.2865 58.9062 74.3904 58.9062 72.0598C58.9062 69.7293 60.5183 67.8332 62.5 67.8332Z" fill="white"/>
<path d="M91.6667 65.9955C96.1755 65.9955 99.8438 61.6812 99.8438 56.3784C99.8438 51.0754 96.1755 46.7613 91.6667 46.7613C87.158 46.7613 83.4897 51.0756 83.4897 56.3784C83.4897 61.6812 87.158 65.9955 91.6667 65.9955V65.9955ZM91.6667 52.2741C93.5909 52.2741 95.1563 54.1153 95.1563 56.3782C95.1563 58.6413 93.5909 60.4825 91.6667 60.4825C89.7427 60.4825 88.1772 58.6413 88.1772 56.3784C88.1772 54.1153 89.7427 52.2741 91.6667 52.2741V52.2741Z" fill="white"/>
<path d="M94.1667 95.3983C100.054 95.3983 104.844 89.7651 104.844 82.8409C104.844 75.9167 100.054 70.2835 94.1667 70.2835C88.2794 70.2835 83.4897 75.9167 83.4897 82.8409C83.4897 89.7651 88.2794 95.3983 94.1667 95.3983V95.3983ZM94.1667 75.7964C97.4694 75.7964 100.156 78.9564 100.156 82.8407C100.156 86.7252 97.4694 89.8853 94.1667 89.8853C90.8641 89.8853 88.1772 86.7252 88.1772 82.8409C88.1772 78.9566 90.8641 75.7964 94.1667 75.7964V75.7964Z" fill="white"/>
</svg>
