<svg width="150" height="150" viewBox="0 0 150 150" fill="none" xmlns="http://www.w3.org/2000/svg">
<g clip-path="url(#clip0)">
<path d="M93.4881 41.5464H57.5486C56.4291 41.5464 55.5184 43.4818 55.5184 45.8607V98.7333C55.5184 101.112 56.4291 103.048 57.5486 103.048H57.5918V104.608C57.5918 106.177 58.1925 107.454 58.9309 107.454H60.5062C61.0835 107.454 61.5939 106.672 61.7766 105.508L62.1625 103.048H88.8742L89.2601 105.508C89.4427 106.672 89.9532 107.454 90.5305 107.454H92.1058C92.8442 107.454 93.4449 106.177 93.4449 104.608V103.048H93.4881C94.6076 103.048 95.5184 101.112 95.5184 98.7333V45.8607C95.5184 43.4818 94.6076 41.5464 93.4881 41.5464ZM60.5471 104.637C60.5413 104.674 60.5248 104.7 60.5062 104.7H58.9309C58.907 104.7 58.8877 104.658 58.8877 104.608V103.048H60.7965L60.5471 104.637ZM92.149 104.608C92.149 104.658 92.1297 104.7 92.1058 104.7H90.5305C90.5119 104.7 90.4955 104.674 90.4896 104.637L90.2403 103.048H92.149V104.608ZM94.2225 98.7333C94.2225 99.5937 93.893 100.294 93.4881 100.294H57.5486C57.1437 100.294 56.8143 99.5937 56.8143 98.7333V45.8607C56.8143 45.0002 57.1437 44.3002 57.5486 44.3002H93.4881C93.893 44.3002 94.2225 45.0002 94.2225 45.8607V98.7333Z" fill="white"/>
<path d="M92.4229 41.2573H58.2683C56.8473 41.2573 55.6911 43.1496 55.6911 45.4755V67.0644C55.6911 67.6502 55.9812 68.125 56.3391 68.125H94.3521C94.71 68.125 95 67.6502 95 67.0644V45.4755C95 43.1496 93.8439 41.2573 92.4229 41.2573V41.2573ZM58.4989 43.3784H92.1922V44.7232C92.1922 45.4242 91.8438 45.9945 91.4156 45.9945H59.2756C58.8473 45.9945 58.4989 45.4242 58.4989 44.7232V43.3784V43.3784ZM92.1922 60.701H58.4989V60.5582C58.4989 59.8572 58.8473 59.2869 59.2756 59.2869H91.4156C91.8438 59.2869 92.1922 59.8572 92.1922 60.5582V60.701ZM58.4989 62.1151H92.1922V63.5292H58.4989V62.1151ZM58.4989 64.9433H92.1922V66.0039H58.4989V64.9433ZM93.7041 66.0039H93.0562V60.5582C93.0562 59.0775 92.3202 57.8729 91.4156 57.8729H59.2756C58.3709 57.8729 57.635 59.0775 57.635 60.5582V66.0039H56.987V45.4755C56.987 44.6964 57.2486 44.0163 57.635 43.6549V44.7232C57.635 46.2039 58.371 47.4086 59.2756 47.4086H91.4156C92.3203 47.4086 93.0562 46.2039 93.0562 44.7232V43.6549C93.4426 44.0163 93.7041 44.6964 93.7041 45.4755V66.0039Z" fill="white"/>
<path d="M83.406 73.4375H79.432C79.1933 73.4375 79 73.7541 79 74.1445C79 74.535 79.1933 74.8516 79.432 74.8516H83.406C83.6447 74.8516 83.838 74.535 83.838 74.1445C83.838 73.7541 83.6447 73.4375 83.406 73.4375Z" fill="white"/>
<path d="M90.3782 73.1073C90.2642 73.1073 90.1528 73.1823 90.0724 73.3138C89.9921 73.4453 89.9463 73.6277 89.9463 73.8144C89.9463 74.001 89.9921 74.1834 90.0724 74.3135C90.1528 74.4465 90.2642 74.5214 90.3782 74.5214C90.4914 74.5214 90.6029 74.4465 90.6832 74.3135C90.7636 74.182 90.8102 73.9996 90.8102 73.8144C90.8102 73.6291 90.7636 73.4467 90.6832 73.3138C90.6029 73.1823 90.4914 73.1073 90.3782 73.1073Z" fill="white"/>
<path d="M88.3912 73.1073C88.2772 73.1073 88.1657 73.1823 88.0854 73.3138C88.005 73.4453 87.9592 73.6277 87.9592 73.8144C87.9592 74.001 88.005 74.182 88.0854 74.3135C88.1657 74.445 88.2772 74.5214 88.3912 74.5214C88.5044 74.5214 88.6158 74.445 88.6962 74.3135C88.7765 74.182 88.8232 73.9996 88.8232 73.8144C88.8232 73.6277 88.7765 73.4453 88.6962 73.3138C88.6158 73.1823 88.5044 73.1073 88.3912 73.1073Z" fill="white"/>
</g>
<defs>
<clipPath id="clip0">
<rect width="40" height="85" fill="white" transform="translate(55 32)"/>
</clipPath>
</defs>
</svg>
