<svg width="150" height="150" viewBox="0 0 150 150" fill="none" xmlns="http://www.w3.org/2000/svg">
<path d="M113.828 35H36.1719C35.5245 35 35 35.5245 35 36.1719V42.0312C35 42.6786 35.5245 43.2031 36.1719 43.2031C36.8192 43.2031 37.3438 42.6786 37.3438 42.0312V37.3438H112.656V112.656H37.3438V49.8438C37.3438 49.1964 36.8192 48.6719 36.1719 48.6719C35.5245 48.6719 35 49.1964 35 49.8438V113.828C35 114.475 35.5245 115 36.1719 115H113.828C114.475 115 115 114.475 115 113.828V36.1719C115 35.5245 114.475 35 113.828 35Z" fill="#05479D"/>
<path d="M77.433 43.5889C76.7617 43.5384 76.1719 44.0838 76.1719 44.7575V63.6567C76.1719 64.2127 76.5625 64.692 77.1069 64.8045C81.18 65.6448 84.3552 68.8198 85.1956 72.8933C85.3081 73.4377 85.7875 73.8283 86.3434 73.8283H105.243C105.916 73.8283 106.462 73.2384 106.411 72.5672C105.84 65.09 102.596 58.0428 97.2766 52.7238C91.9572 47.4044 84.9102 44.1603 77.433 43.5889V43.5889ZM78.905 50.8422C89.3158 52.5295 97.7023 61.0447 99.217 71.4844H96.8477C95.3517 62.1878 87.8125 54.6483 78.5156 53.1523V50.783C78.6456 50.8016 78.7753 50.8214 78.905 50.8422V50.8422ZM78.5156 62.7386V60.3192C79.5522 60.5673 80.5625 60.9244 81.5231 61.3867C82.1058 61.6673 82.8066 61.4223 83.0872 60.8389C83.368 60.2558 83.1227 59.5555 82.5394 59.2748C81.2616 58.6598 79.9045 58.2016 78.5156 57.9159V55.5306C86.5383 56.9872 93.0128 63.4617 94.4694 71.4844H92.0847C91.4108 68.188 89.7603 65.1339 87.3958 62.7425C86.9408 62.2823 86.1987 62.2781 85.7386 62.7331C85.2784 63.1883 85.2742 63.9302 85.7292 64.3903C87.6623 66.3448 89.0447 68.8092 89.682 71.4842H87.2614C86.0516 67.2539 82.7459 63.9483 78.5156 62.7386V62.7386ZM101.585 71.4844C100.016 59.628 90.372 49.9836 78.5156 48.4155V46.0502C84.9633 46.828 90.9959 49.7575 95.6192 54.3808C100.242 59.0041 103.172 65.0367 103.95 71.4844H101.585Z" fill="#05479D"/>
<path d="M72.567 43.5889C65.0898 44.1603 58.0427 47.4044 52.7236 52.7236C47.4044 58.0427 44.1603 65.09 43.5889 72.567C43.5377 73.2383 44.0842 73.8281 44.7575 73.8281H63.6567C64.2127 73.8281 64.692 73.4375 64.8045 72.8931C65.6448 68.8198 68.8198 65.6447 72.8933 64.8044C73.4377 64.6919 73.8283 64.2125 73.8283 63.6566V44.7573C73.8281 44.0834 73.2383 43.5388 72.567 43.5889V43.5889ZM70.9756 58.0313C64.4773 59.5789 59.2667 64.9402 57.9163 71.4844H55.5306C56.9872 63.4617 63.4617 56.9872 71.4844 55.5306V57.9163C71.3148 57.9545 71.1453 57.993 70.9756 58.0313ZM54.3808 54.3808C59.0041 49.7573 65.0367 46.8278 71.4844 46.0502V48.4153C69.7361 48.6456 68.008 49.05 66.3394 49.6208C64.8705 50.1233 65.7364 52.305 67.098 51.8381C68.5222 51.3508 69.9947 50.9991 71.4842 50.7831V53.1523C62.1878 54.6483 54.6483 62.1875 53.1523 71.4844H50.7833C51.8047 64.4873 55.9138 58.1566 61.88 54.3517C62.4258 54.0038 62.5861 53.2794 62.238 52.7338C61.89 52.1881 61.1653 52.0278 60.62 52.3758C53.99 56.6038 49.4481 63.6905 48.4158 71.4845H46.0502C46.8278 65.0367 49.7573 59.0041 54.3808 54.3808V54.3808ZM62.7386 71.4844H60.3194C61.6297 66.0355 66.0353 61.6298 71.4842 60.3195V62.7388C67.2539 63.9483 63.9483 67.2539 62.7386 71.4844V71.4844Z" fill="#05479D"/>
<path d="M106.102 76.5472C105.88 76.308 105.569 76.1719 105.243 76.1719H86.3434C85.7875 76.1719 85.3081 76.5625 85.1956 77.1069C84.3552 81.1802 81.1802 84.3553 77.1069 85.1956C76.5625 85.3081 76.1719 85.7875 76.1719 86.3434V105.243C76.1719 105.903 76.7781 106.462 77.433 106.411C84.9102 105.84 91.9572 102.596 97.2764 97.2766C102.596 91.9575 105.84 84.9102 106.411 77.4331C106.436 77.1077 106.324 76.7867 106.102 76.5472V76.5472ZM94.323 79.2456C92.6113 86.948 86.2844 93.0589 78.5156 94.4694V92.0837C85.2378 90.6966 90.6966 85.2378 92.0838 78.5156H94.4694C94.4252 78.7597 94.3766 79.0034 94.323 79.2456V79.2456ZM87.2614 78.5156H89.6805C88.3709 83.9645 83.9639 88.3703 78.5156 89.6805V87.2612C82.7459 86.0517 86.0516 82.7461 87.2614 78.5156V78.5156ZM95.6192 95.6192C90.9959 100.243 84.9633 103.172 78.5156 103.95V101.585C80.8986 101.271 83.2466 100.631 85.4586 99.6906C86.0542 99.4373 86.3317 98.7494 86.0786 98.1536C85.8252 97.5578 85.1369 97.2803 84.5416 97.5336C82.6167 98.352 80.5855 98.9177 78.5158 99.218V96.8477C87.8122 95.3517 95.3517 87.8125 96.8477 78.5156H99.2184C98.2902 84.8923 94.7717 90.7648 89.6114 94.6181C89.0928 95.0053 88.9864 95.7397 89.3738 96.2581C89.7609 96.7766 90.495 96.8828 91.0138 96.4959C96.7602 92.2061 100.643 85.6289 101.585 78.5156H103.95C103.172 84.9633 100.243 90.9959 95.6192 95.6192V95.6192Z" fill="#05479D"/>
<path d="M64.8044 77.1069C64.6919 76.5625 64.2125 76.1719 63.6566 76.1719H44.7573C44.0842 76.1719 43.5375 76.7617 43.5888 77.433C44.1602 84.9102 47.4042 91.9573 52.7234 97.2764C58.0425 102.596 65.0898 105.84 72.5669 106.411C73.222 106.462 73.828 105.902 73.828 105.242V86.3434C73.828 85.7875 73.4373 85.3081 72.893 85.1956C68.8197 84.3553 65.6447 81.1803 64.8044 77.1069V77.1069ZM71.3156 99.1922C60.8102 97.5906 52.3089 89.0334 50.783 78.5156H53.152C53.7364 82.1547 55.2523 85.632 57.5117 88.5433C57.9089 89.0547 58.6448 89.1473 59.1559 88.7505C59.6672 88.3537 59.76 87.6175 59.3631 87.1063C57.418 84.5998 56.0991 81.6358 55.5298 78.5158H57.9161C59.3033 85.238 64.762 90.6967 71.4842 92.0839V94.4683C68.8513 93.9908 66.3153 92.9742 64.0856 91.4933C63.5467 91.1353 62.8194 91.2819 62.4611 91.8212C62.1031 92.3605 62.2498 93.0877 62.7891 93.4458C65.4005 95.1794 68.3898 96.3478 71.4842 96.8477V99.217C71.4281 99.2089 71.3719 99.2008 71.3156 99.1922V99.1922ZM71.4844 87.2614V89.6806C66.0355 88.3703 61.6298 83.9647 60.3195 78.5158H62.7388C63.9483 82.7461 67.2539 86.0517 71.4844 87.2614V87.2614ZM71.4844 103.95C65.0367 103.172 59.0041 100.242 54.3808 95.6192C49.7573 90.9959 46.8278 84.9633 46.0502 78.5156H48.4156C49.9836 90.372 59.628 100.016 71.4845 101.585V103.95H71.4844Z" fill="#05479D"/>
<path d="M66.9336 75C66.9336 79.4478 70.5522 83.0664 75 83.0664C79.4478 83.0664 83.0664 79.4478 83.0664 75C83.0664 70.5522 79.4478 66.9336 75 66.9336C70.5522 66.9336 66.9336 70.5522 66.9336 75ZM80.7227 75C80.7227 78.1555 78.1555 80.7227 75 80.7227C71.8445 80.7227 69.2773 78.1555 69.2773 75C69.2773 71.8445 71.8445 69.2773 75 69.2773C78.1555 69.2773 80.7227 71.8445 80.7227 75Z" fill="#05479D"/>
</svg>
