<svg width="376" height="306" viewBox="0 0 376 306" fill="none" xmlns="http://www.w3.org/2000/svg">
<path d="M364.053 289.635V26.498H257.919V0.136002H117.877V26.497H11.743V289.635H0V305.658H11.743H161.122H214.674H364.053H375.795V289.635H364.053ZM145.099 289.635H27.767V42.521H145.099V289.635ZM214.674 289.635H161.122V261.848H214.674V289.635ZM214.674 31.494H196.259V56.986H214.674V72.608H196.259V98.1H214.674V113.725H196.259V139.216H214.674V154.839H196.259V180.331H214.674V195.955H196.259V221.444H214.674V246.826H161.122V221.444H179.536V195.955H161.122V180.331H179.536V154.839H161.122V139.216H179.536V113.725H161.122V98.1H179.536V72.608H161.122V56.986H179.536V31.494H161.122V26.498H132.898V15.158H242.897V26.498H214.673V31.494H214.674ZM348.029 289.635H230.697V42.521H348.029V289.635Z" fill="black"/>
<path d="M280.445 59.947H246.238V87.137H280.445V59.947Z" fill="black"/>
<path d="M332.489 59.947H298.282V87.137H332.489V59.947Z" fill="black"/>
<path d="M280.445 103.802H246.238V130.991H280.445V103.802Z" fill="black"/>
<path d="M332.489 103.802H298.282V130.991H332.489V103.802Z" fill="black"/>
<path d="M280.445 147.658H246.238V174.849H280.445V147.658Z" fill="black"/>
<path d="M332.489 147.658H298.282V174.849H332.489V147.658Z" fill="black"/>
<path d="M280.445 191.515H246.238V218.706H280.445V191.515Z" fill="black"/>
<path d="M332.489 191.515H298.282V218.706H332.489V191.515Z" fill="black"/>
<path d="M280.445 235.371H246.238V262.562H280.445V235.371Z" fill="black"/>
<path d="M332.489 235.371H298.282V262.562H332.489V235.371Z" fill="black"/>
<path d="M77.515 59.947H43.308V87.137H77.515V59.947Z" fill="black"/>
<path d="M129.558 59.947H95.351V87.137H129.558V59.947Z" fill="black"/>
<path d="M77.515 103.802H43.308V130.991H77.515V103.802Z" fill="black"/>
<path d="M129.558 103.802H95.351V130.991H129.558V103.802Z" fill="black"/>
<path d="M77.515 147.658H43.308V174.849H77.515V147.658Z" fill="black"/>
<path d="M129.558 147.658H95.351V174.849H129.558V147.658Z" fill="black"/>
<path d="M77.515 191.515H43.308V218.706H77.515V191.515Z" fill="black"/>
<path d="M129.558 191.515H95.351V218.706H129.558V191.515Z" fill="black"/>
<path d="M77.515 235.371H43.308V262.562H77.515V235.371Z" fill="black"/>
<path d="M129.558 235.371H95.351V262.562H129.558V235.371Z" fill="black"/>
</svg>
