<?xml version="1.0" encoding="utf-8"?>
<!-- Generator: Adobe Illustrator 23.0.6, SVG Export Plug-In . SVG Version: 6.00 Build 0)  -->
<svg version="1.1" id="Layer_1" xmlns="http://www.w3.org/2000/svg" xmlns:xlink="http://www.w3.org/1999/xlink" x="0px" y="0px"
	 viewBox="0 0 283.5 283.5" style="enable-background:new 0 0 283.5 283.5;" xml:space="preserve">
<style type="text/css">
	.st0{fill:#FFFFFF;stroke:#4F3BA4;stroke-width:5.04;stroke-linecap:round;stroke-linejoin:round;}
	.st1{fill:#FFFFFF;stroke:#4F3BA4;stroke-width:2.5;stroke-linecap:round;stroke-linejoin:round;}
	.st2{fill:none;stroke:#4F3BA4;stroke-width:2.5;stroke-linecap:round;stroke-linejoin:round;}
	.st3{fill:#FFFFFF;stroke:#4F3BA4;stroke-width:2.52;stroke-linecap:round;stroke-linejoin:round;}
</style>
<rect x="52.8" y="49.6" class="st0" width="178" height="184.3"/>
<title>Dish_Washer</title>
<path class="st1" d="M209.6,62.6c0-2.8,2.2-5,5-5s5,2.2,5,5c0,2.8-2.2,5-5,5l0,0C211.8,67.6,209.6,65.4,209.6,62.6z"/>
<rect x="157.8" y="57.5" class="st1" width="44.7" height="10.1"/>
<rect x="131.4" y="57.5" class="st1" width="10.1" height="10.1"/>
<rect x="121.3" y="57.5" class="st1" width="10.1" height="10.1"/>
<rect x="111.3" y="57.5" class="st1" width="10.1" height="10.1"/>
<rect x="101.2" y="57.5" class="st1" width="10.1" height="10.1"/>
<rect x="91.1" y="57.5" class="st1" width="10.1" height="10.1"/>
<path class="st1" d="M63.9,62.6c0-3.4,2.8-6.2,6.2-6.2c3.4,0,6.2,2.8,6.2,6.2s-2.8,6.2-6.2,6.2C66.7,68.8,63.9,66,63.9,62.6z"/>
<line class="st2" x1="149.9" y1="75.6" x2="149.9" y2="49.6"/>
<polyline class="st1" points="54.9,75.6 111.4,75.6 228.6,75.6 "/>
<line class="st2" x1="228.6" y1="220.6" x2="54.9" y2="220.6"/>
<rect x="54.9" y="75.5" class="st3" width="173.6" height="145.1"/>
<line class="st2" x1="65" y1="206.5" x2="65" y2="75.5"/>
<polyline class="st1" points="75.1,197.8 75.1,178.3 208.4,178.3 208.4,197.8 "/>
<line class="st2" x1="218.5" y1="75.5" x2="218.5" y2="206.5"/>
<path class="st1" d="M164.2,192.9c-12.7,0-23-10.1-23-22.6s10.3-22.6,22.9-22.6s23,10.1,23,22.6l0,0
	C187.1,182.8,176.9,192.9,164.2,192.9z"/>
<ellipse class="st1" cx="177.5" cy="166.8" rx="32.6" ry="30.9"/>
<path class="st1" d="M177.5,190.2c-12.6,0-22.8-10-22.8-22.4s10.2-22.4,22.8-22.4s22.8,10,22.8,22.4l0,0
	C200.3,180.2,190.1,190.2,177.5,190.2z"/>
<line class="st2" x1="218.5" y1="197.8" x2="65" y2="197.8"/>
<polyline class="st1" points="75.1,130.2 75.1,110.7 208.4,110.7 208.4,130.2 "/>
<line class="st2" x1="218.5" y1="130.2" x2="65" y2="130.2"/>
<rect x="54.9" y="206.5" class="st3" width="173.6" height="14.1"/>
<path class="st1" d="M102.3,182.1c0-4.9-4-8.9-8.9-8.9s-8.9,4-8.9,8.9v15.7h17.7v-15.7H102.3z"/>
<line class="st2" x1="93.4" y1="173.2" x2="93.4" y2="160.7"/>
<line class="st2" x1="87.9" y1="160.7" x2="98.9" y2="160.7"/>
<path class="st1" d="M126.4,182.1c0-4.9-4-8.9-8.9-8.9s-8.9,4-8.9,8.9v15.7h17.7L126.4,182.1L126.4,182.1z"/>
<line class="st2" x1="117.5" y1="173.2" x2="117.5" y2="160.7"/>
<line class="st2" x1="112" y1="160.7" x2="123" y2="160.7"/>
<rect x="82.4" y="102.4" class="st1" width="21.4" height="27.6"/>
<path class="st1" d="M103.9,106.6c5.3-0.2,9.8,4,10,9.4c0.2,5.3-4,9.8-9.4,10c-0.2,0-0.4,0-0.6,0"/>
<rect x="119" y="102.4" class="st1" width="21.4" height="27.6"/>
<path class="st1" d="M140.4,106.6c5.3,0.2,9.5,4.6,9.4,10c-0.2,5.1-4.3,9.2-9.4,9.4"/>
<path class="st1" d="M152.7,188.1c-10-4-14.7-15.3-10.6-25.1c1.5-3.6,4-6.6,7.3-8.8c2.2-4.5,5.5-8.4,9.5-11.4
	c-15.4,0.3-27.6,12.9-27.3,28.1c0.3,15.2,13.1,27.2,28.5,26.9c1.4,0,2.8-0.1,4.1-0.3C159.7,195.3,155.7,192,152.7,188.1z"/>
<polygon class="st1" points="163.4,94.9 156,86.9 156,130.2 163.4,122.1 "/>
<polygon class="st1" points="176.3,94.9 168.9,86.9 168.9,130.2 176.3,122.1 "/>
<polygon class="st1" points="189.2,94.9 181.8,86.9 181.8,130.2 189.2,122.1 "/>
<polygon class="st1" points="202.1,94.9 194.7,86.9 194.7,130.2 202.1,122.1 "/>
</svg>
