<?xml version="1.0" encoding="utf-8"?>
<!-- Generator: Adobe Illustrator 23.0.6, SVG Export Plug-In . SVG Version: 6.00 Build 0)  -->
<svg version="1.1" id="Layer_1" xmlns="http://www.w3.org/2000/svg" xmlns:xlink="http://www.w3.org/1999/xlink" x="0px" y="0px"
	 viewBox="0 0 283.5 283.5" style="enable-background:new 0 0 283.5 283.5;" xml:space="preserve">
<style type="text/css">
	.st0{fill:none;stroke:#2F2A95;stroke-width:5.04;stroke-linecap:round;stroke-linejoin:round;}
	.st1{fill:none;stroke:#2F2A95;stroke-width:2.5;stroke-linecap:round;stroke-linejoin:round;}
	.st2{fill:none;stroke:#2F2A95;stroke-width:3.34;stroke-linecap:round;stroke-linejoin:round;}
	.st3{fill:none;stroke:#2F2A95;stroke-width:5;stroke-linecap:round;stroke-linejoin:round;}
</style>
<title>Dryer</title>
<polygon class="st0" points="218.3,222.7 65.2,222.7 65.2,49.8 109.4,49.8 218.3,49.8 "/>
<polyline class="st0" points="206.9,222.7 206.9,234 76.5,234 76.5,222.7 "/>
<line class="st1" x1="132.1" y1="61.9" x2="151.3" y2="61.9"/>
<line class="st1" x1="132.1" y1="67" x2="151.3" y2="67"/>
<line class="st2" x1="65.2" y1="79.1" x2="218.3" y2="79.1"/>
<circle class="st1" cx="162.4" cy="64.5" r="5.7"/>
<circle class="st1" cx="121.1" cy="64.5" r="5.7"/>
<path class="st3" d="M193.1,128.5c-11.7-28.5-44.3-42-72.8-30.3s-42,44.3-30.3,72.8s44.3,42,72.8,30.3c13.7-5.7,24.6-16.6,30.3-30.3
	"/>
<rect x="184.5" y="128.4" class="st3" width="19.8" height="42.5"/>
<path class="st3" d="M118.2,175c-2.2-3.9-5-6.7-5-14.1c0-11.9,7.3-11.9,7.3-23.8c0-6.5-2.2-9.4-4.2-12.7"/>
<path class="st3" d="M134.7,175c-2.2-3.9-5-6.7-5.1-14.1c0-11.9,7.3-11.9,7.3-23.8c0-6.5-2.2-9.4-4.2-12.7"/>
<path class="st3" d="M151.2,175c-2.2-3.9-5-6.7-5-14.1c0-11.9,7.3-11.9,7.3-23.8c0-6.5-2.2-9.4-4.2-12.7"/>
<path class="st3" d="M167.7,175c-2.2-3.9-5-6.7-5-14.1c0-11.9,7.3-11.9,7.3-23.8c0-6.5-2.2-9.4-4.2-12.7"/>
</svg>
