<?xml version="1.0" encoding="utf-8"?>
<!-- Generator: Adobe Illustrator 23.0.6, SVG Export Plug-In . SVG Version: 6.00 Build 0)  -->
<svg version="1.1" id="Layer_1" xmlns="http://www.w3.org/2000/svg" xmlns:xlink="http://www.w3.org/1999/xlink" x="0px" y="0px"
	 viewBox="0 0 283.5 283.5" style="enable-background:new 0 0 283.5 283.5;" xml:space="preserve">
<style type="text/css">
	.st0{fill:none;stroke:#4F3BA4;stroke-width:5;stroke-linecap:round;stroke-linejoin:round;}
	.st1{fill:none;stroke:#4F3BA4;stroke-width:2.5;stroke-linecap:round;stroke-linejoin:round;}
</style>
<title>Freezer_Large</title>
<rect x="42.5" y="84.8" class="st0" width="198.4" height="127.6"/>
<rect x="42.5" y="212.4" class="st0" width="198.4" height="11.3"/>
<path class="st0" d="M141.7,84.8h99.2v-8.9c0-4.5-3.6-8.1-8-8.1l0,0h-91.2"/>
<path class="st0" d="M141.7,84.8H42.5v-8.9c0-4.5,3.6-8.1,8.1-8.1l0,0h91.1"/>
<rect x="56.7" y="223.7" class="st0" width="22.7" height="11.3"/>
<rect x="204.1" y="223.7" class="st0" width="22.7" height="11.3"/>
<polygon class="st0" points="240.9,101.8 166.5,101.8 141.7,84.8 240.9,84.8 "/>
<circle class="st1" cx="58" cy="99" r="5.7"/>
<circle class="st1" cx="78" cy="99" r="5.7"/>
<polyline class="st0" points="141.7,157.1 141.7,139.2 141.7,121.6 "/>
<line class="st0" x1="130.9" y1="128.3" x2="141.7" y2="136"/>
<line class="st0" x1="152.6" y1="128.3" x2="141.7" y2="136"/>
<polyline class="st0" points="141.7,157.1 157.2,148.1 172.4,139.4 "/>
<line class="st0" x1="161.3" y1="133.2" x2="160" y2="146.6"/>
<line class="st0" x1="172.1" y1="152.1" x2="160" y2="146.6"/>
<polyline class="st0" points="141.7,157.1 157.2,166 172.4,174.8 "/>
<line class="st0" x1="172.1" y1="162.1" x2="160" y2="167.6"/>
<line class="st0" x1="161.3" y1="180.9" x2="160" y2="167.6"/>
<polyline class="st0" points="141.7,157.1 141.7,174.9 141.7,192.5 "/>
<line class="st0" x1="152.6" y1="185.9" x2="141.7" y2="178.1"/>
<line class="st0" x1="130.9" y1="185.9" x2="141.7" y2="178.1"/>
<polyline class="st0" points="141.7,157.1 126.3,166 111.1,174.8 "/>
<line class="st0" x1="122.2" y1="180.9" x2="123.5" y2="167.6"/>
<line class="st0" x1="111.3" y1="162.1" x2="123.5" y2="167.6"/>
<polyline class="st0" points="141.7,157.1 126.3,148.1 111.1,139.4 "/>
<line class="st0" x1="111.3" y1="152.1" x2="123.5" y2="146.6"/>
<line class="st0" x1="122.2" y1="133.2" x2="123.5" y2="146.6"/>
</svg>
