<svg width="463" height="387" viewBox="0 0 463 387" fill="none" xmlns="http://www.w3.org/2000/svg">
<path d="M450.858 153.216C452.207 154.279 453.847 154.825 455.501 154.825C456.615 154.825 457.734 154.577 458.774 154.073C461.359 152.819 463 150.198 463 147.325V107.325C463 105.027 461.947 102.856 460.142 101.434L338.043 5.235C329.48 -1.512 317.519 -1.511 308.956 5.235L263 41.443V27.325C263 23.183 259.642 19.825 255.5 19.825H223.5C219.358 19.825 216 23.183 216 27.325V78.474L186.858 101.434C185.053 102.856 184 105.027 184 107.325V147.325C184 150.198 185.641 152.819 188.226 154.073C190.81 155.327 193.885 154.995 196.142 153.217L200 150.177V223.263L130.043 168.146C121.48 161.399 109.519 161.399 100.956 168.146L2.858 245.434C1.053 246.855 0 249.027 0 251.325V291.325C0 294.198 1.641 296.819 4.226 298.073C5.266 298.578 6.385 298.825 7.499 298.825C9.152 298.825 10.793 298.279 12.142 297.216L16 294.176V371.825H7.5C3.358 371.825 0 375.183 0 379.325C0 383.467 3.358 386.825 7.5 386.825H455.5C459.642 386.825 463 383.467 463 379.325C463 375.183 459.642 371.825 455.5 371.825H447V150.176L450.858 153.216V153.216ZM231 34.825H248V53.262L231 66.656V34.825ZM199 110.964L318.24 17.018C321.337 14.578 325.664 14.578 328.761 17.018L448 110.964V131.867L328.142 37.434C326.781 36.361 325.141 35.825 323.5 35.825C321.859 35.825 320.22 36.361 318.858 37.434L199 131.867V110.964ZM15 254.964L110.24 179.927C113.337 177.487 117.664 177.487 120.761 179.927L200 242.358V263.262L120.142 200.343C117.419 198.197 113.581 198.197 110.859 200.343L15 275.868V254.964V254.964ZM31 282.358L115.5 215.783L200 282.359V371.826H167V283.326C167 279.184 163.642 275.826 159.5 275.826H71.5C67.358 275.826 64 279.184 64 283.326V371.826H31V282.358ZM79 322.825H152V339.825H79V322.825ZM152 307.825H79V290.825H152V307.825ZM79 354.825H152V371.825H79V354.825ZM296 315.85C295.834 315.839 295.667 315.825 295.5 315.825C293.53 315.825 291.59 316.625 290.2 318.025C288.8 319.415 288 321.355 288 323.325C288 325.295 288.8 327.235 290.2 328.625C291.59 330.025 293.53 330.825 295.5 330.825C295.667 330.825 295.834 330.811 296 330.8V371.825H263V274.825H296V315.85ZM432 371.825H311V267.325C311 263.183 307.642 259.825 303.5 259.825H255.5C251.358 259.825 248 263.183 248 267.325V371.825H215V138.358L323.5 52.873L432 138.358V371.825Z" fill="black"/>
<path d="M343.5 338.825H391.5C395.642 338.825 399 335.467 399 331.325V267.325C399 263.183 395.642 259.825 391.5 259.825H343.5C339.358 259.825 336 263.183 336 267.325V331.325C336 335.467 339.358 338.825 343.5 338.825ZM351 323.825V298.825H384V323.825H351ZM384 274.825V283.825H351V274.825H384Z" fill="black"/>
<path d="M343.5 226.825H391.5C395.642 226.825 399 223.467 399 219.325V155.325C399 151.183 395.642 147.825 391.5 147.825H343.5C339.358 147.825 336 151.183 336 155.325V219.325C336 223.467 339.358 226.825 343.5 226.825ZM351 211.825V186.825H384V211.825H351ZM384 162.825V171.825H351V162.825H384Z" fill="black"/>
<path d="M303.5 147.825H255.5C251.358 147.825 248 151.183 248 155.325V219.325C248 223.467 251.358 226.825 255.5 226.825H303.5C307.642 226.825 311 223.467 311 219.325V155.325C311 151.183 307.642 147.825 303.5 147.825ZM296 162.825V171.825H263V162.825H296ZM263 211.825V186.825H296V211.825H263Z" fill="black"/>
</svg>
