<?xml version="1.0" encoding="utf-8"?>
<!-- Generator: Adobe Illustrator 23.0.6, SVG Export Plug-In . SVG Version: 6.00 Build 0)  -->
<svg version="1.1" id="Layer_1" xmlns="http://www.w3.org/2000/svg" xmlns:xlink="http://www.w3.org/1999/xlink" x="0px" y="0px"
	 viewBox="0 0 150 150" style="enable-background:new 0 0 150 150;" xml:space="preserve">
<style type="text/css">
	.st0{fill:#FFFFFF;}
</style>
<title>Artboard 8 copy</title>
<path class="st0" d="M66.9,87.9c-3,0.1-5.9-0.8-8.3-2.6c-2-1.4-4.3-2.2-6.7-2.1l0,0c-2.4-0.1-4.8,0.7-6.8,2.1
	c-0.5,0.3-1,0.6-1.5,0.9c-0.7,0.4-1.6,0.1-2-0.6s-0.1-1.6,0.6-2l0,0c0.5-0.3,0.9-0.5,1.4-0.8c2.4-1.7,5.3-2.6,8.3-2.6l0,0
	c3,0,5.9,0.8,8.3,2.6c2,1.4,4.3,2.2,6.7,2.1l0,0c2.4,0.1,4.8-0.7,6.8-2.1l0.6-0.3c0.7-0.5,1.6-0.3,2.1,0.3c0.5,0.7,0.3,1.6-0.3,2.1
	C76,84.9,76,85,75.9,85l-0.5,0.3C72.8,87,69.9,87.9,66.9,87.9L66.9,87.9z"/>
<path class="st0" d="M66.9,97.2c-3,0.1-5.9-0.8-8.3-2.6c-2-1.4-4.3-2.2-6.7-2.1l0,0c-2.4-0.1-4.8,0.7-6.8,2.1
	c-0.5,0.3-1,0.6-1.5,0.9c-0.7,0.4-1.6,0.1-2-0.6s-0.1-1.6,0.6-2c0.5-0.3,0.9-0.5,1.4-0.8c2.4-1.7,5.3-2.6,8.3-2.6l0,0
	c3,0,5.9,0.8,8.3,2.6c2,1.4,4.3,2.2,6.7,2.1l0,0c2.4,0.1,4.8-0.7,6.8-2.1l0.5-0.3c0.7-0.4,1.6-0.2,2.1,0.5c0.4,0.7,0.2,1.6-0.5,2.1
	l-0.5,0.3C72.8,96.3,69.9,97.2,66.9,97.2L66.9,97.2z"/>
<path class="st0" d="M66.9,106.4c-3,0.1-5.9-0.8-8.3-2.6c-2-1.4-4.3-2.2-6.7-2.1l0,0c-2.4-0.1-4.8,0.7-6.8,2.1
	c-0.5,0.3-1,0.6-1.5,0.9c-0.7,0.4-1.6,0.2-2.1-0.5c-0.4-0.7-0.2-1.6,0.5-2.1c0.1,0,0.1-0.1,0.2-0.1c0.5-0.3,0.9-0.6,1.4-0.8
	c2.4-1.7,5.4-2.6,8.3-2.6c3-0.1,5.9,0.8,8.3,2.6c2,1.4,4.3,2.2,6.7,2.1l0,0c2.4,0.1,4.8-0.7,6.8-2.1l0.5-0.3
	c0.7-0.4,1.6-0.2,2.1,0.5c0.4,0.7,0.2,1.6-0.5,2.1l-0.5,0.3C72.9,105.6,70,106.5,66.9,106.4L66.9,106.4z"/>
<path class="st0" d="M66.9,115.7c-3,0.1-5.9-0.8-8.3-2.6c-2-1.4-4.3-2.2-6.7-2.1l0,0c-2.4-0.1-4.8,0.7-6.8,2.1
	c-0.5,0.3-1,0.6-1.5,0.9c-0.7,0.4-1.6,0.1-2-0.6s-0.1-1.6,0.6-2l0,0c0.5-0.3,0.9-0.5,1.4-0.8c2.4-1.7,5.3-2.6,8.3-2.6l0,0
	c3-0.1,5.9,0.8,8.3,2.6c2,1.4,4.3,2.2,6.7,2.1l0,0c2.4,0.1,4.8-0.7,6.8-2.1l0.5-0.3c0.7-0.4,1.6-0.2,2.1,0.5
	c0.4,0.7,0.2,1.6-0.5,2.1l0,0l-0.5,0.3C72.9,114.8,70,115.7,66.9,115.7L66.9,115.7z"/>
<path class="st0" d="M97.1,87.9c-3,0.1-5.9-0.8-8.3-2.6c-2-1.4-4.3-2.2-6.8-2.1l0,0c-2.4-0.1-4.8,0.7-6.8,2.1
	c-0.5,0.3-1,0.6-1.5,0.9c-0.7,0.4-1.6,0.1-2-0.6s-0.1-1.6,0.6-2c0.5-0.3,0.9-0.5,1.4-0.8c2.4-1.7,5.4-2.6,8.3-2.6l0,0
	c3,0,5.9,0.8,8.3,2.6c2,1.4,4.3,2.2,6.7,2.1l0,0c2.4,0.1,4.8-0.7,6.8-2.1l0.5-0.3c0.7-0.5,1.7-0.2,2.1,0.5s0.2,1.7-0.5,2.1l-0.5,0.3
	C103,87.1,100.1,88,97.1,87.9L97.1,87.9z"/>
<path class="st0" d="M97.1,97.2c-3,0-5.9-0.8-8.3-2.6c-2-1.4-4.3-2.2-6.8-2.1l0,0c-2.4-0.1-4.8,0.7-6.8,2.1c-0.5,0.3-1,0.6-1.5,0.9
	c-0.7,0.4-1.6,0.1-2-0.6s-0.1-1.6,0.6-2c0.5-0.3,0.9-0.5,1.4-0.8c2.4-1.7,5.3-2.6,8.3-2.6l0,0c3-0.1,5.9,0.8,8.3,2.5
	c2,1.4,4.3,2.2,6.7,2.1l0,0c2.4,0.1,4.8-0.7,6.8-2.1l0.5-0.3c0.7-0.4,1.6-0.2,2.1,0.5c0.4,0.7,0.2,1.6-0.5,2.1l-0.5,0.3
	C103,96.3,100.1,97.2,97.1,97.2L97.1,97.2z"/>
<path class="st0" d="M97.1,106.4c-3,0-5.9-0.8-8.3-2.6c-2-1.4-4.3-2.2-6.8-2.1l0,0c-2.4-0.1-4.8,0.7-6.8,2.1c-0.5,0.3-1,0.6-1.5,0.9
	c-0.7,0.4-1.6,0.1-2-0.6s-0.1-1.6,0.6-2c0.5-0.3,0.9-0.5,1.4-0.8c5-3.4,11.6-3.4,16.7,0c2,1.4,4.3,2.2,6.7,2.1l0,0
	c2.4,0.1,4.8-0.7,6.8-2.1l0.5-0.3c0.7-0.4,1.6-0.2,2.1,0.5c0.4,0.7,0.2,1.6-0.5,2.1l-0.5,0.3C103,105.6,100.1,106.5,97.1,106.4
	L97.1,106.4z"/>
<path class="st0" d="M97.1,115.7c-3,0.1-5.9-0.8-8.3-2.6c-2-1.4-4.3-2.2-6.8-2.1l0,0c-2.4-0.1-4.8,0.7-6.8,2.1
	c-0.5,0.3-1,0.6-1.5,0.9c-0.7,0.4-1.6,0.1-2-0.6s-0.1-1.6,0.6-2l0,0c0.5-0.3,0.9-0.6,1.4-0.8c2.4-1.7,5.4-2.6,8.3-2.6l0,0
	c3-0.1,5.9,0.8,8.3,2.6c2,1.4,4.3,2.2,6.7,2.1l0,0c2.4,0.1,4.8-0.7,6.8-2.1l0.5-0.3c0.7-0.4,1.6-0.2,2.1,0.5
	c0.4,0.7,0.2,1.6-0.5,2.1l-0.5,0.3C103,114.8,100,115.7,97.1,115.7L97.1,115.7z"/>
<path class="st0" d="M42.8,55.9c-0.8,0-1.5-0.7-1.5-1.5s0.7-1.5,1.5-1.5l62.3-0.1l0,0c0.8,0,1.5,0.7,1.5,1.5s-0.7,1.5-1.5,1.5
	C105.1,55.9,42.8,55.9,42.8,55.9z"/>
<path class="st0" d="M71.9,87c-0.8,0-1.5-0.7-1.5-1.5V48c0-3.1-2.5-5.7-5.7-5.7l0,0c-3.1,0-5.7,2.5-5.7,5.6l0,0v6.5
	c0,0.8-0.7,1.5-1.5,1.5l0,0c-0.8,0-1.5-0.7-1.5-1.5V48c0-4.8,3.9-8.7,8.7-8.7l0,0c4.8,0,8.7,3.9,8.7,8.6l0,0v37.5
	C73.4,86.3,72.7,87,71.9,87L71.9,87z"/>
<path class="st0" d="M92.4,87.1c-0.8,0-1.5-0.7-1.5-1.5V47.9c0-3.1-2.5-5.7-5.7-5.7l0,0c-3.1,0-5.7,2.5-5.7,5.6v0.1v6.4
	c0,0.8-0.7,1.5-1.5,1.5l0,0l0,0c-0.8,0-1.5-0.7-1.5-1.5V48c0-4.8,3.9-8.7,8.7-8.7l0,0c4.8,0,8.7,3.9,8.7,8.7v37.6
	C93.9,86.5,93.2,87.1,92.4,87.1L92.4,87.1z"/>
<path class="st0" d="M71.9,74.6c-0.8,0-1.5-0.7-1.5-1.5s0.7-1.5,1.5-1.5h20.5l0,0c0.8,0,1.5,0.7,1.5,1.5s-0.7,1.5-1.5,1.5H71.9z"/>
<path class="st0" d="M71.9,64.9c-0.8,0-1.5-0.7-1.5-1.5c0-0.8,0.7-1.5,1.5-1.5h20.5l0,0c0.8,0,1.5,0.7,1.5,1.5
	c0,0.8-0.7,1.5-1.5,1.5H71.9z"/>
</svg>
