<svg id="Layer_1" data-name="Layer 1" xmlns="http://www.w3.org/2000/svg" viewBox="0 0 150 150"><defs><style>.cls-1{fill:#fff;}.cls-2{fill:#771784;}</style></defs><title>Artboard 7 copy</title><rect class="cls-1" x="69.73" y="50.55" width="12.55" height="10.89" transform="translate(-0.06 0.08) rotate(-0.06)"/><path class="cls-2" d="M69.74,62.94a1.5,1.5,0,0,1-1.5-1.5V50.56a1.5,1.5,0,0,1,1.49-1.5l12.55,0a1.52,1.52,0,0,1,1.06.44,1.46,1.46,0,0,1,.44,1.06l0,10.89a1.5,1.5,0,0,1-1.5,1.5Zm1.49-10.89v7.89h9.55V52Z"/><path class="cls-1" d="M76,58.49A14.49,14.49,0,0,0,61.51,73c0,4,6.5,7.23,14.52,7.22s14.51-3.26,14.51-7.25A14.49,14.49,0,0,0,76,58.49Z"/><path class="cls-2" d="M76,81.69a25.07,25.07,0,0,1-10.9-2.27C61.82,77.79,60,75.5,60,73A16,16,0,0,1,76,57h0A16,16,0,0,1,92,72.94c0,4.89-7,8.74-16,8.75ZM76,60h0A13,13,0,0,0,63,73c0,1.31,1.25,2.69,3.42,3.77a22.16,22.16,0,0,0,9.57,2h0c7.67,0,13-3,13-5.75A13,13,0,0,0,76,60Z"/><path class="cls-2" d="M36.35,66.51a1.5,1.5,0,1,1,0-3H46.9a1.5,1.5,0,0,1,0,3Z"/><path class="cls-2" d="M41.68,86.27a1.5,1.5,0,0,1-.75-2.8l10-5.77a1.5,1.5,0,1,1,1.5,2.6l-10,5.77A1.43,1.43,0,0,1,41.68,86.27Z"/><path class="cls-2" d="M56.22,100.72a1.43,1.43,0,0,1-.75-.2,1.49,1.49,0,0,1-.55-2l5.15-8.91a1.5,1.5,0,0,1,2.6,1.5L57.52,100A1.51,1.51,0,0,1,56.22,100.72Z"/><path class="cls-2" d="M76.06,106a1.5,1.5,0,0,1-1.5-1.5V94.3A1.49,1.49,0,0,1,76,92.8h0a1.51,1.51,0,0,1,1.5,1.5v10.2a1.5,1.5,0,0,1-1.5,1.5Z"/><path class="cls-2" d="M95.88,100.68a1.5,1.5,0,0,1-1.29-.74l-4.91-8.45A1.5,1.5,0,0,1,92.28,90l4.9,8.45a1.49,1.49,0,0,1-1.3,2.25Z"/><path class="cls-2" d="M110.39,86.2a1.46,1.46,0,0,1-.75-.2l-10-5.75a1.5,1.5,0,1,1,1.5-2.6l10,5.75a1.5,1.5,0,0,1-.74,2.8Z"/><path class="cls-2" d="M105,66.44a1.5,1.5,0,0,1,0-3h10.7a1.5,1.5,0,0,1,0,3Z"/><path class="cls-2" d="M61.51,73.72a.75.75,0,1,1,0-1.5l29,0h0a.75.75,0,1,1,0,1.5l-29,0Z"/><path class="cls-2" d="M31,52.1a1.5,1.5,0,1,1,0-3l90-.1h0a1.5,1.5,0,0,1,0,3l-90,.1Z"/></svg>