<svg id="Layer_1" data-name="Layer 1" xmlns="http://www.w3.org/2000/svg" viewBox="0 0 150 150"><defs><style>.cls-1{fill:#4f3ba4;}.cls-2{fill:#fff;}</style></defs><title>Artboard 6 copy</title><rect class="cls-1" x="37.78" y="55.18" width="75.95" height="44.92" transform="translate(-1.8 153.48) rotate(-90.06)"/><path class="cls-2" d="M53.34,117.14a1.5,1.5,0,0,1-1.5-1.5l-.08-75.95a1.5,1.5,0,0,1,.44-1.06,1.46,1.46,0,0,1,1.06-.44l44.92,0h0a1.5,1.5,0,0,1,1.5,1.5l.08,76a1.5,1.5,0,0,1-.44,1.06,1.46,1.46,0,0,1-1.06.44l-44.92,0Zm1.42-76,.08,73,41.92,0-.08-73Z"/><path class="cls-2" d="M53.29,68.87a1.5,1.5,0,1,1,0-3l44.92,0h0a1.5,1.5,0,0,1,1.5,1.49,1.51,1.51,0,0,1-1.5,1.51l-44.92,0Z"/><path class="cls-2" d="M82.51,62.28a1.5,1.5,0,0,1,0-3H92a1.5,1.5,0,1,1,0,3Z"/><path class="cls-2" d="M82.52,75.59a1.5,1.5,0,0,1,0-3H92a1.5,1.5,0,0,1,0,3Z"/><path class="cls-2" d="M57.61,63.38a.76.76,0,0,1-.75-.75V43.93a.75.75,0,0,1,.74-.75h0a.76.76,0,0,1,.75.75V62.62a.76.76,0,0,1-.74.76Z"/><path class="cls-2" d="M57.66,111.16a.76.76,0,0,1-.75-.75l0-38.3a.76.76,0,0,1,.75-.75h0a.74.74,0,0,1,.75.75l0,38.3a.75.75,0,0,1-.74.75Z"/></svg>