<svg id="Layer_1" data-name="Layer 1" xmlns="http://www.w3.org/2000/svg" viewBox="0 0 150 150"><defs><style>.cls-1{fill:#4f3ba4; fill-opacity:1.0;}.cls-2{fill:#fff;}.cls-3{fill:#213057;}</style></defs><title>Artboard 4 copy</title><rect class="cls-1" x="36.52" y="43.9" width="74.93" height="41.58" transform="translate(-0.07 0.08) rotate(-0.06)"/><path class="cls-2" d="M36.54,87a1.52,1.52,0,0,1-1.06-.44A1.5,1.5,0,0,1,35,85.52l0-41.58a1.5,1.5,0,0,1,1.5-1.5l74.93-.08h0a1.5,1.5,0,0,1,1.5,1.5l0,41.58a1.49,1.49,0,0,1-1.49,1.5L36.54,87ZM38,45.44,38,84,110,83.94l0-38.57Z"/><rect class="cls-1" x="36.56" y="98.76" width="42.06" height="12.09" transform="translate(-0.11 0.06) rotate(-0.06)"/><path class="cls-2" d="M36.57,112.36a1.49,1.49,0,0,1-1.06-.43,1.52,1.52,0,0,1-.44-1.06V98.78a1.5,1.5,0,0,1,1.49-1.5l42.06,0h0a1.5,1.5,0,0,1,1.5,1.5v12.09a1.5,1.5,0,0,1-1.5,1.5l-42.06,0Zm1.49-12.08v9.08l39.06,0v-9.08Z"/><rect class="cls-1" x="84.62" y="98.71" width="26.88" height="12.09" transform="matrix(1, 0, 0, 1, -0.11, 0.1)"/><path class="cls-2" d="M84.62,112.31a1.49,1.49,0,0,1-1.5-1.49V98.73a1.5,1.5,0,0,1,1.5-1.5l26.88,0h0a1.5,1.5,0,0,1,1.5,1.5v12.08a1.51,1.51,0,0,1-1.5,1.51l-26.87,0Zm1.49-12.08v9.08l23.88,0V100.2Z"/><rect class="cls-1" x="69.42" y="85.48" width="9.19" height="6.63" transform="translate(-0.09 0.08) rotate(-0.06)"/><path class="cls-2" d="M69.42,93.61a1.5,1.5,0,0,1-1.5-1.49V85.49a1.5,1.5,0,0,1,.44-1.06A1.46,1.46,0,0,1,69.41,84H78.6a1.5,1.5,0,0,1,1.5,1.5V92.1a1.54,1.54,0,0,1-.44,1.07,1.5,1.5,0,0,1-1.06.44ZM70.92,87v3.63h6.19V87Z"/><path class="cls-2" d="M42.15,93.64a1.5,1.5,0,0,1,0-3l63.74-.06h0a1.5,1.5,0,0,1,0,3l-63.74.06Z"/><path class="cls-2" d="M56.56,68.11a.74.74,0,0,1-.53-.22.75.75,0,0,1,0-1.06l23-23.46a.75.75,0,0,1,1.06,0,.75.75,0,0,1,0,1.06l-23,23.46A.74.74,0,0,1,56.56,68.11Z"/><path class="cls-2" d="M66.75,68.1a.79.79,0,0,1-.53-.22.75.75,0,0,1,0-1.06L89.26,43.36a.75.75,0,0,1,1.07,1l-23,23.46A.75.75,0,0,1,66.75,68.1Z"/><path class="cls-2" d="M42.16,106.32a1.5,1.5,0,0,1,0-3l16.91,0h0a1.5,1.5,0,1,1,0,3l-16.91,0Z"/><ellipse class="cls-3" cx="72.72" cy="104.78" rx="1.64" ry="1.67"/><path class="cls-2" d="M72.72,107a2.13,2.13,0,0,1-1.52-.63,2.2,2.2,0,0,1-.63-1.53,2.17,2.17,0,0,1,2.15-2.18h0a2.14,2.14,0,0,1,1.52.64,2.18,2.18,0,0,1-1.52,3.7Zm0-3.34h0a1.17,1.17,0,0,0-1.15,1.17,1.16,1.16,0,0,0,.34.83,1.13,1.13,0,0,0,.81.34h0a1.15,1.15,0,0,0,1.14-1.17,1.17,1.17,0,0,0-.34-.83A1.1,1.1,0,0,0,72.72,103.61Z"/><ellipse class="cls-3" cx="105.9" cy="104.75" rx="1.64" ry="1.67"/><path class="cls-2" d="M105.9,106.92a2.13,2.13,0,0,1-1.52-.64,2.18,2.18,0,0,1-.63-1.53,2.14,2.14,0,0,1,.63-1.53,2.14,2.14,0,0,1,3,0,2.2,2.2,0,0,1,.62,1.54,2.16,2.16,0,0,1-2.14,2.17Zm-1.15-2.17a1.17,1.17,0,0,0,.34.83,1.13,1.13,0,0,0,.81.34h0a1.17,1.17,0,0,0,.8-2,1.1,1.1,0,0,0-.8-.34h0a1.13,1.13,0,0,0-.81.34A1.17,1.17,0,0,0,104.75,104.75Z"/></svg>