<svg id="Layer_1" data-name="Layer 1" xmlns="http://www.w3.org/2000/svg" viewBox="0 0 150 150"><defs><style>.cls-1{fill:#fff;}.cls-2{fill:#2f2a95;}</style></defs><title>Artboard 3 copy</title><rect class="cls-1" x="28.24" y="55.59" width="93.96" height="43.9" transform="translate(-0.08 0.08) rotate(-0.06)"/><path class="cls-2" d="M28.26,101a1.5,1.5,0,0,1-1.5-1.5l-.05-43.9a1.5,1.5,0,0,1,1.5-1.5l94-.1h0a1.5,1.5,0,0,1,1.5,1.5l0,43.9a1.5,1.5,0,0,1-1.49,1.5l-94,.1Zm1.46-43.9,0,40.9,90.95-.1,0-40.9Z"/><path class="cls-2" d="M113.51,82.48a3.31,3.31,0,0,1-2.39-1,3.36,3.36,0,0,1-1-2.4,3.44,3.44,0,0,1,1-2.41,3.37,3.37,0,0,1,4.79,0,3.41,3.41,0,0,1,1,2.4h0a3.41,3.41,0,0,1-1,2.41,3.37,3.37,0,0,1-2.39,1Zm0-5.31h0a1.84,1.84,0,0,0-1.33.56A1.9,1.9,0,0,0,113.51,81h0a1.83,1.83,0,0,0,1.32-.56,1.9,1.9,0,0,0,.56-1.35h0a1.9,1.9,0,0,0-.56-1.35A1.86,1.86,0,0,0,113.51,77.17Z"/><path class="cls-2" d="M85.07,82.51a.75.75,0,0,1-.75-.75V76.45a.75.75,0,0,1,.75-.75l19.85,0h0a.74.74,0,0,1,.75.75v5.31a.75.75,0,0,1-.75.75l-19.85,0Zm.74-5.31V81l18.35,0V77.18Z"/><path class="cls-2" d="M34.3,89.16a1.5,1.5,0,0,1-1.5-1.49,1.51,1.51,0,0,1,1.5-1.51l81.84-.08h0a1.5,1.5,0,0,1,0,3l-81.85.08Z"/><path class="cls-2" d="M34.31,95a1.5,1.5,0,0,1,0-3l81.84-.09h0a1.5,1.5,0,0,1,0,3L34.31,95Z"/></svg>